<svg xmlns="http://www.w3.org/2000/svg" xmlns:xlink="http://www.w3.org/1999/xlink" width="100" zoomAndPan="magnify" viewBox="0 0 75 74.999997" height="100" preserveAspectRatio="xMidYMid meet" version="1.0"><defs><clipPath id="b52a42f22c"><path d="M 24 31 L 51 31 L 51 52.5 L 24 52.5 Z M 24 31 " clip-rule="nonzero"/></clipPath><clipPath id="6a70f3bb9c"><path d="M 37 22.5 L 40 22.5 L 40 32 L 37 32 Z M 37 22.5 " clip-rule="nonzero"/></clipPath><clipPath id="f07491a342"><path d="M 44 24 L 51.3125 24 L 51.3125 33 L 44 33 Z M 44 24 " clip-rule="nonzero"/></clipPath><clipPath id="4d2bb72dd4"><path d="M 42 34 L 51 34 L 51 52.5 L 42 52.5 Z M 42 34 " clip-rule="nonzero"/></clipPath><clipPath id="9a4d107e46"><path d="M 33 44 L 44 44 L 44 52.5 L 33 52.5 Z M 33 44 " clip-rule="nonzero"/></clipPath><clipPath id="20a68f8021"><path d="M 27 34 L 37 34 L 37 52.5 L 27 52.5 Z M 27 34 " clip-rule="nonzero"/></clipPath><clipPath id="7dd992fb2f"><path d="M 23.5625 31 L 51.3125 31 L 51.3125 52.5 L 23.5625 52.5 Z M 23.5625 31 " clip-rule="nonzero"/></clipPath><clipPath id="0eb0a0e439"><path d="M 36 22.5 L 40 22.5 L 40 32 L 36 32 Z M 36 22.5 " clip-rule="nonzero"/></clipPath><clipPath id="d036a35b28"><path d="M 44 24 L 51.3125 24 L 51.3125 33 L 44 33 Z M 44 24 " clip-rule="nonzero"/></clipPath><clipPath id="fd5a57051e"><path d="M 48 31 L 51.3125 31 L 51.3125 34 L 48 34 Z M 48 31 " clip-rule="nonzero"/></clipPath></defs><g clip-path="url(#b52a42f22c)"><path fill="#f48ca7" d="M 49.933594 34.308594 C 49.890625 34.304688 49.847656 34.300781 49.804688 34.300781 C 49.242188 34.300781 48.753906 34.714844 48.671875 35.285156 L 48.292969 37.898438 C 47.722656 37.296875 46.914062 36.917969 46.023438 36.917969 C 44.292969 36.917969 42.890625 38.328125 42.890625 40.0625 C 42.890625 41.800781 44.292969 43.210938 46.023438 43.210938 C 46.59375 43.210938 47.132812 43.058594 47.589844 42.789062 L 47.398438 44.117188 L 44.328125 44.117188 C 43.972656 44.117188 43.625 44.238281 43.34375 44.460938 L 42.433594 45.175781 C 42.027344 44.535156 41.3125 44.117188 40.515625 44.117188 L 36.957031 44.117188 C 36.523438 44.117188 36.117188 44.238281 35.769531 44.453125 L 35.910156 41.421875 C 36.414062 42.480469 37.492188 43.210938 38.734375 43.210938 C 40.464844 43.210938 41.867188 41.800781 41.867188 40.0625 C 41.867188 38.550781 40.804688 37.289062 39.386719 36.988281 C 39.386719 36.160156 39.238281 35.363281 38.957031 34.722656 C 37.6875 32.398438 35.808594 31.734375 31.761719 31.734375 C 27.710938 31.734375 25.832031 32.398438 24.566406 34.722656 C 23.871094 36.292969 23.992188 38.785156 25.046875 40.410156 C 25.496094 38.007812 25.832031 36.773438 27.363281 36.183594 L 28.113281 52.261719 L 49.847656 52.261719 L 49.847656 44.378906 C 49.847656 44.203125 49.859375 44.03125 49.882812 43.859375 L 50.9375 35.597656 C 51.015625 34.960938 50.566406 34.382812 49.933594 34.308594 Z M 37.472656 37.1875 C 36.878906 37.449219 36.382812 37.894531 36.050781 38.445312 L 36.152344 36.183594 C 36.746094 36.410156 37.160156 36.734375 37.472656 37.1875 Z M 29.429688 35.78125 C 30.085938 35.726562 30.855469 35.703125 31.761719 35.703125 C 32.664062 35.703125 33.433594 35.726562 34.089844 35.78125 L 33.980469 37.847656 C 33.433594 37.289062 32.671875 36.941406 31.832031 36.921875 C 30.9375 36.898438 30.121094 37.257812 29.539062 37.847656 Z M 33.683594 43.519531 C 33.683594 43.519531 33.105469 44.117188 31.761719 44.117188 C 30.414062 44.117188 29.835938 43.519531 29.835938 43.519531 L 29.785156 42.503906 C 30.304688 42.929688 30.964844 43.191406 31.6875 43.210938 C 32.460938 43.226562 33.179688 42.960938 33.734375 42.503906 Z M 33.683594 43.519531 " fill-opacity="1" fill-rule="nonzero"/></g><path fill="#f48ca7" d="M 30.570312 30.246094 L 26.605469 24.046875 L 24.878906 25.632812 L 29.808594 30.863281 Z M 30.570312 30.246094 " fill-opacity="1" fill-rule="nonzero"/><g clip-path="url(#6a70f3bb9c)"><path fill="#f48ca7" d="M 38.46875 31.277344 L 39.320312 22.738281 L 37.082031 22.738281 L 37.671875 31.277344 Z M 38.46875 31.277344 " fill-opacity="1" fill-rule="nonzero"/></g><g clip-path="url(#f07491a342)"><path fill="#f48ca7" d="M 51.046875 25.902344 L 49.269531 24.617188 L 44.441406 31.828125 L 45.101562 32.355469 Z M 51.046875 25.902344 " fill-opacity="1" fill-rule="nonzero"/></g><g clip-path="url(#4d2bb72dd4)"><path fill="#ffc05a" d="M 48.292969 37.898438 L 48.671875 35.285156 C 48.753906 34.714844 49.242188 34.300781 49.804688 34.300781 C 49.847656 34.300781 49.890625 34.304688 49.933594 34.308594 C 50.566406 34.382812 51.015625 34.960938 50.9375 35.597656 L 49.882812 43.859375 C 49.859375 44.03125 49.847656 44.203125 49.847656 44.378906 L 49.847656 52.261719 L 43.777344 52.261719 L 42.757812 46.035156 C 42.707031 45.71875 42.597656 45.429688 42.433594 45.175781 L 43.34375 44.460938 C 43.625 44.238281 43.972656 44.117188 44.328125 44.117188 L 47.398438 44.117188 L 47.589844 42.789062 Z M 48.292969 37.898438 " fill-opacity="1" fill-rule="nonzero"/></g><path fill="#ffc05a" d="M 48.292969 37.898438 L 47.589844 42.789062 C 47.132812 43.058594 46.59375 43.210938 46.023438 43.210938 C 44.292969 43.210938 42.890625 41.800781 42.890625 40.0625 C 42.890625 38.328125 44.292969 36.917969 46.023438 36.917969 C 46.914062 36.917969 47.722656 37.296875 48.292969 37.898438 Z M 48.292969 37.898438 " fill-opacity="1" fill-rule="nonzero"/><g clip-path="url(#9a4d107e46)"><path fill="#8bcb8f" d="M 40.515625 44.117188 C 41.3125 44.117188 42.027344 44.535156 42.433594 45.175781 C 42.597656 45.429688 42.707031 45.71875 42.757812 46.035156 L 43.777344 52.261719 L 33.695312 52.261719 L 34.710938 46.035156 C 34.820312 45.355469 35.21875 44.789062 35.769531 44.453125 C 36.117188 44.238281 36.523438 44.117188 36.957031 44.117188 Z M 40.515625 44.117188 " fill-opacity="1" fill-rule="nonzero"/></g><path fill="#8bcb8f" d="M 39.386719 36.988281 C 40.804688 37.289062 41.867188 38.550781 41.867188 40.0625 C 41.867188 41.800781 40.464844 43.210938 38.734375 43.210938 C 37.492188 43.210938 36.414062 42.480469 35.910156 41.421875 C 35.714844 41.011719 35.605469 40.550781 35.605469 40.0625 C 35.605469 39.472656 35.769531 38.917969 36.050781 38.449219 L 36.050781 38.445312 C 36.382812 37.894531 36.878906 37.449219 37.472656 37.1875 C 37.859375 37.015625 38.285156 36.917969 38.734375 36.917969 C 38.957031 36.917969 39.175781 36.941406 39.386719 36.988281 Z M 39.386719 36.988281 " fill-opacity="1" fill-rule="nonzero"/><g clip-path="url(#20a68f8021)"><path fill="#dc4e4f" d="M 34.089844 35.78125 L 34.121094 35.167969 C 34.152344 34.617188 34.609375 34.183594 35.160156 34.183594 C 35.171875 34.183594 35.183594 34.183594 35.199219 34.183594 C 35.773438 34.203125 36.222656 34.695312 36.195312 35.273438 L 36.152344 36.183594 L 36.050781 38.445312 L 36.050781 38.449219 C 35.769531 38.917969 35.605469 39.472656 35.605469 40.0625 C 35.605469 40.550781 35.714844 41.011719 35.910156 41.421875 L 35.769531 44.453125 C 35.21875 44.789062 34.820312 45.355469 34.710938 46.035156 L 33.695312 52.261719 L 28.113281 52.261719 L 27.363281 36.183594 L 27.324219 35.273438 C 27.324219 35.257812 27.324219 35.242188 27.324219 35.226562 C 27.324219 34.667969 27.761719 34.203125 28.320312 34.183594 C 28.886719 34.160156 29.367188 34.601562 29.398438 35.167969 L 29.429688 35.78125 L 29.539062 37.847656 L 29.785156 42.503906 L 29.835938 43.519531 C 29.835938 43.519531 30.414062 44.117188 31.761719 44.117188 C 33.105469 44.117188 33.683594 43.519531 33.683594 43.519531 L 33.734375 42.503906 L 33.980469 37.847656 Z M 34.089844 35.78125 " fill-opacity="1" fill-rule="nonzero"/></g><path fill="#dc4e4f" d="M 33.980469 37.847656 L 33.734375 42.503906 C 33.179688 42.960938 32.460938 43.226562 31.6875 43.210938 C 30.964844 43.191406 30.304688 42.929688 29.785156 42.503906 L 29.539062 37.847656 C 30.121094 37.257812 30.9375 36.898438 31.832031 36.921875 C 32.671875 36.941406 33.433594 37.289062 33.980469 37.847656 Z M 33.980469 37.847656 " fill-opacity="1" fill-rule="nonzero"/><path fill="#ae2c36" d="M 33.113281 32.808594 C 33.597656 33.441406 31.761719 34.875 31.761719 34.875 C 31.761719 34.875 29.921875 33.441406 30.410156 32.808594 C 30.527344 32.652344 30.664062 32.59375 30.808594 32.59375 C 31.261719 32.59375 31.761719 33.167969 31.761719 33.167969 C 31.761719 33.167969 32.625 32.167969 33.113281 32.808594 Z M 33.113281 32.808594 " fill-opacity="1" fill-rule="nonzero"/><path fill="#fbe2ae" d="M 38.957031 34.722656 C 39.238281 35.363281 39.386719 36.160156 39.386719 36.988281 C 39.175781 36.941406 38.957031 36.917969 38.734375 36.917969 C 38.285156 36.917969 37.859375 37.015625 37.472656 37.1875 C 37.160156 36.734375 36.746094 36.410156 36.152344 36.183594 L 36.195312 35.273438 C 36.222656 34.695312 35.773438 34.203125 35.199219 34.183594 C 35.183594 34.183594 35.171875 34.183594 35.160156 34.183594 C 34.609375 34.183594 34.152344 34.617188 34.121094 35.167969 L 34.089844 35.78125 C 33.433594 35.726562 32.664062 35.703125 31.761719 35.703125 C 30.855469 35.703125 30.085938 35.726562 29.429688 35.78125 L 29.398438 35.167969 C 29.367188 34.601562 28.886719 34.160156 28.320312 34.183594 C 27.761719 34.203125 27.324219 34.667969 27.324219 35.226562 C 27.324219 35.242188 27.324219 35.257812 27.324219 35.273438 L 27.363281 36.183594 C 25.832031 36.773438 25.496094 38.007812 25.046875 40.410156 C 23.992188 38.785156 23.871094 36.292969 24.566406 34.722656 C 25.832031 32.398438 27.710938 31.734375 31.761719 31.734375 C 35.808594 31.734375 37.6875 32.398438 38.957031 34.722656 Z M 31.761719 34.875 C 31.761719 34.875 33.597656 33.441406 33.113281 32.808594 C 32.625 32.167969 31.761719 33.167969 31.761719 33.167969 C 31.761719 33.167969 31.261719 32.59375 30.808594 32.59375 C 30.664062 32.59375 30.527344 32.652344 30.410156 32.808594 C 29.921875 33.441406 31.761719 34.875 31.761719 34.875 Z M 31.761719 34.875 " fill-opacity="1" fill-rule="nonzero"/><g clip-path="url(#7dd992fb2f)"><path fill="#3a322b" d="M 49.960938 34.074219 C 49.210938 33.988281 48.542969 34.503906 48.4375 35.253906 L 48.125 37.421875 C 47.53125 36.945312 46.800781 36.679688 46.023438 36.679688 C 44.164062 36.679688 42.652344 38.199219 42.652344 40.066406 C 42.652344 41.929688 44.164062 43.449219 46.023438 43.449219 C 46.460938 43.449219 46.890625 43.363281 47.292969 43.199219 L 47.195312 43.878906 L 44.328125 43.878906 C 43.917969 43.878906 43.519531 44.019531 43.195312 44.269531 L 42.484375 44.835938 C 42.019531 44.246094 41.308594 43.878906 40.515625 43.878906 L 36.957031 43.878906 C 36.628906 43.878906 36.316406 43.941406 36.027344 44.058594 L 36.113281 42.183594 C 36.730469 42.953125 37.675781 43.449219 38.734375 43.449219 C 40.59375 43.449219 42.105469 41.929688 42.105469 40.066406 C 42.105469 38.507812 41.050781 37.195312 39.621094 36.804688 C 39.597656 35.996094 39.445312 35.242188 39.164062 34.605469 C 37.894531 32.28125 36.027344 31.496094 31.761719 31.496094 C 27.492188 31.496094 25.625 32.28125 24.347656 34.625 C 23.578125 36.375 23.796875 38.917969 24.851562 40.539062 C 24.894531 40.609375 24.96875 40.648438 25.050781 40.648438 C 25.0625 40.648438 25.078125 40.648438 25.09375 40.644531 C 25.191406 40.625 25.265625 40.550781 25.28125 40.453125 C 25.703125 38.1875 26.011719 37.113281 27.144531 36.542969 L 27.875 52.273438 C 27.882812 52.398438 27.988281 52.5 28.113281 52.5 L 49.847656 52.5 C 49.980469 52.5 50.085938 52.394531 50.085938 52.261719 L 50.085938 44.378906 C 50.085938 44.214844 50.097656 44.050781 50.117188 43.890625 L 51.171875 35.628906 C 51.21875 35.257812 51.117188 34.890625 50.890625 34.597656 C 50.660156 34.300781 50.332031 34.117188 49.960938 34.074219 Z M 46.023438 42.972656 C 44.425781 42.972656 43.128906 41.667969 43.128906 40.066406 C 43.128906 38.460938 44.425781 37.15625 46.023438 37.15625 C 46.789062 37.15625 47.5 37.453125 48.042969 37.988281 L 47.375 42.632812 C 46.960938 42.851562 46.496094 42.972656 46.023438 42.972656 Z M 40.515625 44.355469 C 41.515625 44.355469 42.363281 45.078125 42.527344 46.070312 L 43.496094 52.023438 L 33.972656 52.023438 L 34.945312 46.070312 C 35.109375 45.078125 35.953125 44.355469 36.957031 44.355469 Z M 36.375 36.542969 C 36.667969 36.691406 36.90625 36.875 37.105469 37.105469 C 36.816406 37.265625 36.550781 37.472656 36.320312 37.710938 Z M 41.628906 40.066406 C 41.628906 41.667969 40.332031 42.972656 38.734375 42.972656 C 37.140625 42.972656 35.839844 41.667969 35.839844 40.066406 C 35.839844 38.460938 37.140625 37.15625 38.734375 37.15625 C 40.332031 37.15625 41.628906 38.460938 41.628906 40.066406 Z M 24.941406 39.722656 C 24.253906 38.25 24.164062 36.21875 24.773438 34.835938 C 25.957031 32.667969 27.652344 31.972656 31.761719 31.972656 C 35.867188 31.972656 37.566406 32.667969 38.738281 34.816406 C 38.972656 35.347656 39.113281 36.007812 39.144531 36.707031 C 39.011719 36.691406 38.875 36.679688 38.734375 36.679688 C 38.320312 36.679688 37.921875 36.761719 37.554688 36.898438 C 37.257812 36.519531 36.882812 36.238281 36.398438 36.027344 L 36.433594 35.285156 C 36.449219 34.941406 36.332031 34.613281 36.097656 34.359375 C 35.867188 34.105469 35.550781 33.957031 35.207031 33.945312 C 34.515625 33.921875 33.921875 34.464844 33.886719 35.15625 L 33.867188 35.523438 C 33.285156 35.484375 32.589844 35.464844 31.761719 35.464844 C 30.929688 35.464844 30.238281 35.484375 29.652344 35.523438 L 29.632812 35.15625 C 29.597656 34.464844 29.007812 33.925781 28.3125 33.945312 C 27.96875 33.957031 27.652344 34.105469 27.421875 34.359375 C 27.1875 34.613281 27.070312 34.941406 27.085938 35.285156 L 27.121094 36.027344 C 25.726562 36.640625 25.3125 37.855469 24.941406 39.722656 Z M 33.769531 37.355469 C 33.214844 36.9375 32.542969 36.699219 31.835938 36.683594 C 31.070312 36.664062 30.347656 36.902344 29.75 37.355469 L 29.679688 36 C 30.25 35.960938 30.9375 35.941406 31.757812 35.941406 C 32.582031 35.941406 33.269531 35.960938 33.839844 36 Z M 33.503906 42.378906 C 32.984375 42.777344 32.335938 42.984375 31.695312 42.972656 C 31.078125 42.957031 30.5 42.753906 30.015625 42.382812 L 29.78125 37.945312 C 30.339844 37.421875 31.0625 37.144531 31.828125 37.15625 C 32.542969 37.175781 33.21875 37.457031 33.738281 37.945312 Z M 31.683594 43.449219 C 31.707031 43.449219 31.734375 43.449219 31.757812 43.449219 C 32.367188 43.449219 32.957031 43.28125 33.472656 42.976562 L 33.453125 43.40625 C 33.277344 43.539062 32.742188 43.878906 31.757812 43.878906 C 30.777344 43.878906 30.238281 43.539062 30.066406 43.40625 L 30.046875 42.976562 C 30.539062 43.269531 31.097656 43.433594 31.683594 43.449219 Z M 27.558594 35.261719 C 27.550781 35.046875 27.625 34.839844 27.769531 34.679688 C 27.917969 34.519531 28.113281 34.429688 28.332031 34.421875 C 28.769531 34.398438 29.136719 34.746094 29.160156 35.183594 L 29.601562 43.53125 C 29.605469 43.589844 29.628906 43.644531 29.667969 43.6875 C 29.691406 43.714844 30.332031 44.355469 31.757812 44.355469 C 33.1875 44.355469 33.828125 43.714844 33.851562 43.6875 C 33.890625 43.644531 33.917969 43.589844 33.917969 43.53125 L 34.359375 35.183594 C 34.382812 34.746094 34.753906 34.402344 35.1875 34.421875 C 35.40625 34.429688 35.601562 34.523438 35.75 34.679688 C 35.894531 34.839844 35.96875 35.046875 35.960938 35.261719 L 35.8125 38.386719 C 35.53125 38.878906 35.367188 39.453125 35.367188 40.066406 C 35.367188 40.5625 35.476562 41.035156 35.671875 41.464844 L 35.539062 44.316406 C 34.988281 44.695312 34.59375 45.289062 34.476562 45.992188 L 33.492188 52.023438 L 28.339844 52.023438 Z M 50.699219 35.566406 L 49.648438 43.828125 C 49.625 44.011719 49.613281 44.195312 49.613281 44.378906 L 49.613281 52.023438 L 43.976562 52.023438 L 42.992188 45.992188 C 42.949219 45.722656 42.863281 45.46875 42.742188 45.234375 L 43.488281 44.644531 C 43.726562 44.457031 44.023438 44.355469 44.328125 44.355469 L 47.398438 44.355469 C 47.515625 44.355469 47.617188 44.269531 47.632812 44.152344 L 48.90625 35.320312 C 48.976562 34.828125 49.410156 34.488281 49.90625 34.546875 C 50.148438 34.574219 50.367188 34.695312 50.515625 34.890625 C 50.667969 35.082031 50.730469 35.324219 50.699219 35.566406 Z M 50.699219 35.566406 " fill-opacity="1" fill-rule="nonzero"/></g><path fill="#3a322b" d="M 31.613281 35.0625 C 31.65625 35.097656 31.707031 35.113281 31.761719 35.113281 C 31.8125 35.113281 31.863281 35.097656 31.90625 35.0625 C 32.242188 34.800781 33.898438 33.445312 33.300781 32.660156 C 33.152344 32.46875 32.957031 32.363281 32.734375 32.355469 C 32.347656 32.347656 31.976562 32.628906 31.761719 32.828125 C 31.542969 32.628906 31.167969 32.34375 30.785156 32.355469 C 30.5625 32.363281 30.367188 32.46875 30.21875 32.660156 C 29.621094 33.445312 31.277344 34.800781 31.613281 35.0625 Z M 30.597656 32.949219 C 30.675781 32.847656 30.746094 32.832031 30.800781 32.832031 C 30.804688 32.832031 30.808594 32.832031 30.8125 32.832031 C 31.058594 32.832031 31.414062 33.132812 31.582031 33.324219 C 31.625 33.375 31.691406 33.402344 31.761719 33.402344 C 31.828125 33.402344 31.894531 33.375 31.9375 33.324219 C 32.082031 33.160156 32.46875 32.820312 32.71875 32.832031 C 32.773438 32.832031 32.84375 32.847656 32.921875 32.953125 C 33.113281 33.199219 32.484375 33.972656 31.761719 34.570312 C 31.035156 33.972656 30.40625 33.199219 30.597656 32.949219 Z M 30.597656 32.949219 " fill-opacity="1" fill-rule="nonzero"/><path fill="#3a322b" d="M 29.636719 31.023438 C 29.683594 31.074219 29.746094 31.097656 29.808594 31.097656 C 29.863281 31.097656 29.914062 31.082031 29.960938 31.046875 L 30.71875 30.433594 C 30.8125 30.355469 30.835938 30.21875 30.769531 30.117188 L 26.804688 23.917969 C 26.765625 23.859375 26.703125 23.820312 26.632812 23.8125 C 26.566406 23.800781 26.496094 23.824219 26.445312 23.871094 L 24.71875 25.453125 C 24.671875 25.496094 24.644531 25.558594 24.644531 25.621094 C 24.640625 25.683594 24.664062 25.746094 24.707031 25.792969 Z M 26.554688 24.414062 L 30.253906 30.195312 L 29.832031 30.539062 L 25.21875 25.640625 Z M 26.554688 24.414062 " fill-opacity="1" fill-rule="nonzero"/><path fill="#3a322b" d="M 24.558594 30.441406 L 26.273438 31.324219 C 26.304688 31.339844 26.34375 31.351562 26.378906 31.351562 C 26.464844 31.351562 26.550781 31.300781 26.589844 31.21875 C 26.652344 31.101562 26.605469 30.960938 26.488281 30.898438 L 24.773438 30.019531 C 24.660156 29.960938 24.515625 30.003906 24.457031 30.121094 C 24.394531 30.238281 24.441406 30.382812 24.558594 30.441406 Z M 24.558594 30.441406 " fill-opacity="1" fill-rule="nonzero"/><path fill="#3a322b" d="M 33.3125 28.609375 C 33.347656 28.703125 33.4375 28.757812 33.527344 28.757812 C 33.558594 28.757812 33.589844 28.75 33.621094 28.738281 C 33.742188 28.6875 33.796875 28.546875 33.746094 28.425781 L 32.121094 24.554688 C 32.070312 24.433594 31.933594 24.378906 31.8125 24.429688 C 31.691406 24.480469 31.632812 24.621094 31.683594 24.742188 Z M 33.3125 28.609375 " fill-opacity="1" fill-rule="nonzero"/><g clip-path="url(#0eb0a0e439)"><path fill="#3a322b" d="M 37.671875 31.515625 L 38.46875 31.515625 C 38.589844 31.515625 38.691406 31.421875 38.707031 31.300781 L 39.558594 22.761719 C 39.566406 22.695312 39.542969 22.628906 39.5 22.578125 C 39.453125 22.527344 39.390625 22.5 39.324219 22.5 L 37.082031 22.5 C 37.015625 22.5 36.953125 22.527344 36.90625 22.574219 C 36.863281 22.625 36.839844 22.6875 36.84375 22.753906 L 37.433594 31.292969 C 37.445312 31.417969 37.546875 31.515625 37.671875 31.515625 Z M 39.0625 22.976562 L 38.253906 31.039062 L 37.894531 31.039062 L 37.335938 22.976562 Z M 39.0625 22.976562 " fill-opacity="1" fill-rule="nonzero"/></g><path fill="#3a322b" d="M 42.488281 28.722656 C 42.527344 28.746094 42.570312 28.757812 42.609375 28.757812 C 42.691406 28.757812 42.769531 28.714844 42.816406 28.640625 L 44.949219 25.027344 C 45.015625 24.914062 44.976562 24.769531 44.863281 24.703125 C 44.753906 24.636719 44.605469 24.671875 44.539062 24.785156 L 42.40625 28.398438 C 42.339844 28.511719 42.378906 28.65625 42.488281 28.722656 Z M 42.488281 28.722656 " fill-opacity="1" fill-rule="nonzero"/><g clip-path="url(#d036a35b28)"><path fill="#3a322b" d="M 51.183594 25.710938 L 49.410156 24.425781 C 49.355469 24.386719 49.292969 24.371094 49.230469 24.382812 C 49.164062 24.394531 49.109375 24.429688 49.074219 24.484375 L 44.246094 31.695312 C 44.175781 31.800781 44.195312 31.9375 44.292969 32.015625 L 44.953125 32.542969 C 44.996094 32.574219 45.050781 32.59375 45.101562 32.59375 C 45.164062 32.59375 45.230469 32.566406 45.273438 32.515625 L 51.21875 26.0625 C 51.265625 26.015625 51.289062 25.945312 51.28125 25.878906 C 51.273438 25.8125 51.238281 25.75 51.183594 25.710938 Z M 45.078125 32.03125 L 44.761719 31.78125 L 49.332031 24.953125 L 50.6875 25.9375 Z M 45.078125 32.03125 " fill-opacity="1" fill-rule="nonzero"/></g><g clip-path="url(#fd5a57051e)"><path fill="#3a322b" d="M 48.539062 33.066406 C 48.582031 33.066406 48.628906 33.054688 48.667969 33.027344 L 51.019531 31.476562 C 51.128906 31.402344 51.160156 31.257812 51.089844 31.144531 C 51.015625 31.035156 50.871094 31.007812 50.761719 31.078125 L 48.410156 32.628906 C 48.300781 32.703125 48.269531 32.847656 48.339844 32.960938 C 48.386719 33.027344 48.460938 33.066406 48.539062 33.066406 Z M 48.539062 33.066406 " fill-opacity="1" fill-rule="nonzero"/></g></svg>