<svg xmlns="http://www.w3.org/2000/svg" xmlns:xlink="http://www.w3.org/1999/xlink" width="100" zoomAndPan="magnify" viewBox="0 0 75 74.999997" height="100" preserveAspectRatio="xMidYMid meet" version="1.0"><defs><clipPath id="55141e90bc"><path d="M 35 25.230469 L 40 25.230469 L 40 28 L 35 28 Z M 35 25.230469 " clip-rule="nonzero"/></clipPath><clipPath id="d1e3bcc371"><path d="M 35 25.230469 L 36 25.230469 L 36 26 L 35 26 Z M 35 25.230469 " clip-rule="nonzero"/></clipPath><clipPath id="1860a69ee5"><path d="M 32 25.230469 L 34 25.230469 L 34 27 L 32 27 Z M 32 25.230469 " clip-rule="nonzero"/></clipPath><clipPath id="5b0b153645"><path d="M 24.074219 32 L 30 32 L 30 34 L 24.074219 34 Z M 24.074219 32 " clip-rule="nonzero"/></clipPath><clipPath id="2ef6071cf5"><path d="M 49 44 L 51.074219 44 L 51.074219 47 L 49 47 Z M 49 44 " clip-rule="nonzero"/></clipPath><clipPath id="8c168955cf"><path d="M 26 47 L 29 47 L 29 49.980469 L 26 49.980469 Z M 26 47 " clip-rule="nonzero"/></clipPath></defs><path fill="#26285d" d="M 35.179688 35.648438 C 35.179688 35.648438 31.570312 36.40625 29.816406 36.769531 C 29.816406 36.769531 29.960938 37.632812 30.378906 37.722656 C 30.792969 37.8125 34.617188 38.320312 35.25 38 C 35.667969 37.789062 35.617188 36.875 35.648438 35.894531 C 35.660156 35.4375 35.179688 35.648438 35.179688 35.648438 " fill-opacity="1" fill-rule="nonzero"/><path fill="#f7981a" d="M 32.117188 41.878906 C 32.117188 41.878906 32.222656 41.941406 32.21875 41.976562 C 32.21875 42.011719 32.230469 42.496094 32.199219 42.578125 C 32.164062 42.660156 30.6875 42.695312 30.6875 42.695312 C 30.6875 42.695312 29.949219 42.59375 29.882812 42.492188 C 29.8125 42.390625 29.851562 42.320312 29.898438 42.3125 C 29.941406 42.304688 31.703125 41.800781 31.703125 41.800781 L 32.117188 41.878906 " fill-opacity="1" fill-rule="nonzero"/><path fill="#f68c82" d="M 31.921875 41.339844 C 31.921875 41.339844 32.050781 42.066406 32.046875 42.085938 C 32.035156 42.203125 31.734375 42.269531 31.628906 42.199219 L 31.378906 41.492188 L 31.921875 41.339844 " fill-opacity="1" fill-rule="nonzero"/><path fill="#26285d" d="M 31.238281 36.578125 C 31.238281 36.578125 31.332031 37.125 31.402344 37.269531 C 31.476562 37.414062 31.910156 40.617188 32.046875 41.683594 C 32.046875 41.683594 31.589844 41.941406 31.402344 41.765625 C 31.117188 41.496094 29.816406 36.804688 29.816406 36.804688 L 31.238281 36.578125 " fill-opacity="1" fill-rule="nonzero"/><path fill="#26285d" d="M 34.9375 35.648438 C 34.9375 35.648438 38.953125 36.40625 40.710938 36.769531 C 40.710938 36.769531 40.5625 37.632812 40.144531 37.722656 C 39.730469 37.8125 35.90625 38.320312 35.273438 38 C 34.855469 37.789062 34.5 36.875 34.472656 35.894531 C 34.457031 35.4375 34.9375 35.648438 34.9375 35.648438 " fill-opacity="1" fill-rule="nonzero"/><path fill="#f7981a" d="M 38.40625 41.878906 C 38.40625 41.878906 38.300781 41.941406 38.304688 41.976562 C 38.304688 42.011719 38.292969 42.496094 38.328125 42.578125 C 38.359375 42.660156 39.835938 42.695312 39.835938 42.695312 C 39.835938 42.695312 40.574219 42.59375 40.640625 42.492188 C 40.710938 42.390625 40.671875 42.320312 40.628906 42.3125 C 40.582031 42.304688 38.820312 41.800781 38.820312 41.800781 L 38.40625 41.878906 " fill-opacity="1" fill-rule="nonzero"/><path fill="#f68c82" d="M 38.601562 41.339844 C 38.601562 41.339844 38.472656 42.066406 38.476562 42.085938 C 38.492188 42.203125 38.789062 42.269531 38.894531 42.199219 L 39.144531 41.492188 L 38.601562 41.339844 " fill-opacity="1" fill-rule="nonzero"/><path fill="#26285d" d="M 39.285156 36.578125 C 39.285156 36.578125 39.195312 37.125 39.121094 37.269531 C 39.050781 37.414062 38.613281 40.617188 38.476562 41.683594 C 38.476562 41.683594 38.933594 41.941406 39.121094 41.765625 C 39.410156 41.496094 40.707031 36.804688 40.707031 36.804688 L 39.285156 36.578125 " fill-opacity="1" fill-rule="nonzero"/><path fill="#26285d" d="M 33.328125 42.09375 C 33.328125 42.191406 32.152344 42.269531 30.703125 42.269531 C 29.253906 42.269531 28.078125 42.191406 28.078125 42.09375 C 28.078125 42 29.253906 41.921875 30.703125 41.921875 C 32.152344 41.921875 33.328125 42 33.328125 42.09375 " fill-opacity="1" fill-rule="nonzero"/><path fill="#fbc9e7" d="M 32.597656 42.007812 L 28.445312 42.007812 L 28.445312 37.386719 C 28.445312 37.386719 30.949219 36.691406 32.597656 37.386719 C 34.25 38.082031 32.597656 42.007812 32.597656 42.007812 " fill-opacity="1" fill-rule="nonzero"/><path fill="#966e98" d="M 32.597656 37.386719 C 32.027344 37.144531 31.351562 37.070312 30.714844 37.078125 C 31.265625 37.902344 31.589844 38.890625 31.589844 39.945312 C 31.589844 40.675781 31.433594 41.375 31.15625 42.007812 L 32.597656 42.007812 C 32.597656 42.007812 34.25 38.082031 32.597656 37.386719 " fill-opacity="1" fill-rule="nonzero"/><path fill="#26285d" d="M 38.9375 37.421875 C 38.929688 37.386719 38.96875 37.347656 39.027344 37.335938 L 41.289062 36.929688 C 41.347656 36.917969 41.398438 36.9375 41.40625 36.976562 C 41.410156 37.011719 41.371094 37.050781 41.316406 37.0625 L 39.050781 37.472656 C 38.992188 37.480469 38.941406 37.460938 38.9375 37.421875 " fill-opacity="1" fill-rule="nonzero"/><path fill="#26285d" d="M 41.136719 36.28125 C 41.101562 36.265625 41.089844 36.222656 41.105469 36.183594 L 41.835938 34.589844 C 41.851562 34.550781 41.894531 34.53125 41.929688 34.546875 C 41.960938 34.5625 41.976562 34.605469 41.957031 34.644531 L 41.230469 36.238281 C 41.210938 36.277344 41.171875 36.296875 41.136719 36.28125 " fill-opacity="1" fill-rule="nonzero"/><path fill="#26285d" d="M 41.179688 36.21875 C 41.195312 36.1875 41.179688 36.140625 41.140625 36.121094 L 39.597656 35.304688 C 39.558594 35.28125 39.511719 35.292969 39.496094 35.328125 C 39.476562 35.359375 39.496094 35.402344 39.535156 35.425781 L 41.078125 36.242188 C 41.117188 36.261719 41.160156 36.253906 41.179688 36.21875 " fill-opacity="1" fill-rule="nonzero"/><path fill="#26285d" d="M 41.132812 36.121094 C 41.167969 36.113281 41.203125 36.125 41.207031 36.144531 L 41.410156 37.003906 C 41.414062 37.023438 41.386719 37.046875 41.351562 37.058594 C 41.316406 37.066406 41.28125 37.054688 41.277344 37.035156 L 41.074219 36.175781 C 41.070312 36.15625 41.09375 36.128906 41.132812 36.121094 " fill-opacity="1" fill-rule="nonzero"/><path fill="#26285d" d="M 31.015625 38.136719 C 31.03125 38.097656 30.992188 38.042969 30.933594 38.019531 L 28.472656 37.058594 C 28.414062 37.035156 28.351562 37.050781 28.335938 37.089844 C 28.320312 37.128906 28.355469 37.183594 28.417969 37.207031 L 30.875 38.164062 C 30.9375 38.191406 31 38.175781 31.015625 38.136719 " fill-opacity="1" fill-rule="nonzero"/><path fill="#26285d" d="M 28.789062 36.367188 C 28.832031 36.355469 28.855469 36.308594 28.84375 36.261719 L 28.375 34.308594 C 28.363281 34.257812 28.320312 34.226562 28.277344 34.238281 C 28.238281 34.25 28.210938 34.296875 28.222656 34.34375 L 28.691406 36.296875 C 28.703125 36.347656 28.746094 36.378906 28.789062 36.367188 " fill-opacity="1" fill-rule="nonzero"/><path fill="#26285d" d="M 28.753906 36.289062 C 28.742188 36.246094 28.769531 36.199219 28.820312 36.1875 L 30.734375 35.605469 C 30.785156 35.589844 30.832031 35.613281 30.84375 35.65625 C 30.855469 35.695312 30.828125 35.742188 30.78125 35.753906 L 28.863281 36.335938 C 28.816406 36.351562 28.765625 36.328125 28.753906 36.289062 " fill-opacity="1" fill-rule="nonzero"/><path fill="#26285d" d="M 28.828125 36.1875 C 28.789062 36.167969 28.75 36.171875 28.738281 36.195312 L 28.324219 37.117188 C 28.3125 37.140625 28.335938 37.175781 28.375 37.191406 C 28.414062 37.210938 28.457031 37.207031 28.464844 37.183594 L 28.882812 36.261719 C 28.890625 36.238281 28.867188 36.207031 28.828125 36.1875 " fill-opacity="1" fill-rule="nonzero"/><path fill="#26285d" d="M 36.992188 42.519531 L 37.734375 43.121094 C 37.734375 43.121094 38.097656 43.160156 38.097656 43.121094 C 38.097656 43.082031 37.605469 42.152344 37.605469 42.152344 L 36.992188 42.519531 " fill-opacity="1" fill-rule="nonzero"/><path fill="#26285d" d="M 33.453125 42.519531 L 32.710938 43.121094 C 32.710938 43.121094 32.347656 43.160156 32.347656 43.121094 C 32.347656 43.082031 32.84375 42.152344 32.84375 42.152344 L 33.453125 42.519531 " fill-opacity="1" fill-rule="nonzero"/><path fill="#26285d" d="M 29.730469 42.125 L 28.894531 43.085938 C 28.894531 43.085938 28.714844 43.132812 28.714844 43.105469 C 28.714844 43.078125 29.460938 42.09375 29.460938 42.09375 L 29.730469 42.125 " fill-opacity="1" fill-rule="nonzero"/><path fill="#26285d" d="M 32.308594 42.125 L 33.144531 43.085938 C 33.144531 43.085938 33.328125 43.132812 33.328125 43.105469 C 33.328125 43.078125 32.582031 42.09375 32.582031 42.09375 L 32.308594 42.125 " fill-opacity="1" fill-rule="nonzero"/><g clip-path="url(#55141e90bc)"><path fill="#f7981a" d="M 38.980469 27.320312 C 38.980469 27.320312 39.058594 27.214844 39.019531 27.195312 C 38.980469 27.175781 35.753906 25.347656 35.707031 25.328125 L 35.714844 25.375 L 38.980469 27.320312 " fill-opacity="1" fill-rule="nonzero"/></g><g clip-path="url(#d1e3bcc371)"><path fill="#f7981a" d="M 35.679688 25.265625 C 35.734375 25.296875 35.765625 25.347656 35.746094 25.375 C 35.726562 25.402344 35.667969 25.398438 35.609375 25.367188 C 35.550781 25.335938 35.519531 25.285156 35.539062 25.257812 C 35.558594 25.230469 35.621094 25.234375 35.679688 25.265625 " fill-opacity="1" fill-rule="nonzero"/></g><path fill="#f7981a" d="M 30.441406 28.9375 C 30.441406 28.9375 30.53125 29.03125 30.554688 28.996094 C 30.582031 28.960938 32.917969 26.074219 32.945312 26.03125 L 32.894531 26.027344 L 30.441406 28.9375 " fill-opacity="1" fill-rule="nonzero"/><g clip-path="url(#1860a69ee5)"><path fill="#f7981a" d="M 33.011719 26.011719 C 32.96875 26.0625 32.917969 26.085938 32.890625 26.0625 C 32.867188 26.039062 32.882812 25.976562 32.921875 25.925781 C 32.964844 25.875 33.015625 25.851562 33.039062 25.875 C 33.066406 25.898438 33.050781 25.960938 33.011719 26.011719 " fill-opacity="1" fill-rule="nonzero"/></g><path fill="#f68c82" d="M 35.5 30.828125 C 35.5 30.828125 35.914062 29.789062 37.457031 29.390625 C 37.457031 29.390625 37.785156 28.109375 38.128906 27.179688 C 38.128906 27.179688 38.46875 26.691406 38.5625 27.199219 C 38.734375 28.140625 38.789062 29.449219 38.699219 29.675781 C 38.125 31.148438 36.472656 31.492188 36.171875 31.265625 L 35.5 30.828125 " fill-opacity="1" fill-rule="nonzero"/><path fill="#e66f64" d="M 34.046875 30.757812 C 34.046875 30.757812 33.757812 29.734375 32 29.902344 C 32 29.902344 31.265625 29.332031 31.234375 28.523438 C 31.234375 28.523438 30.894531 28.007812 30.75 28.507812 C 30.371094 29.824219 31.195312 30.675781 31.375 30.839844 C 32.261719 31.667969 33.777344 31.601562 33.898438 31.246094 L 34.046875 30.757812 " fill-opacity="1" fill-rule="nonzero"/><path fill="#f68c82" d="M 36.839844 31.09375 L 35.839844 30.304688 C 35.839844 30.304688 35.765625 30.261719 35.765625 30.273438 C 35.519531 30.183594 35.253906 30.164062 35.03125 30.148438 C 35.03125 30.148438 34.460938 30.152344 34.210938 30.230469 L 34.207031 30.230469 C 34.179688 30.238281 34.15625 30.246094 34.136719 30.257812 C 34.136719 30.257812 34.136719 30.261719 34.132812 30.261719 L 33.328125 31.488281 C 33.328125 31.488281 33.761719 35.78125 33.78125 36.125 C 34.234375 36.308594 34.546875 36.382812 34.964844 36.382812 C 35.425781 36.378906 35.789062 36.273438 36.203125 36.140625 C 36.335938 35.660156 36.976562 31.90625 36.839844 31.09375 " fill-opacity="1" fill-rule="nonzero"/><path fill="#e66f64" d="M 33.914062 34.636719 C 33.941406 34.363281 33.902344 34.046875 33.960938 33.691406 C 34.078125 32.933594 34.128906 32.910156 34.410156 32.195312 C 34.667969 31.535156 35.042969 30.847656 35.5 30.226562 C 35.332031 30.1875 35.160156 30.15625 35.03125 30.148438 C 35.03125 30.148438 34.460938 30.152344 34.210938 30.230469 L 34.207031 30.230469 C 34.179688 30.238281 34.15625 30.246094 34.136719 30.257812 C 34.136719 30.257812 33.804688 30.378906 33.804688 30.378906 L 33.328125 31.488281 C 33.328125 31.488281 33.710938 35.191406 33.730469 35.535156 C 33.738281 35.539062 33.902344 34.632812 33.914062 34.636719 " fill-opacity="1" fill-rule="nonzero"/><path fill="#e66f64" d="M 35.441406 29.496094 C 35.453125 29.464844 34.554688 29.527344 34.554688 29.527344 C 34.554688 29.527344 34.621094 30.101562 34.542969 30.28125 C 34.542969 30.28125 34.734375 30.332031 34.949219 30.34375 L 34.949219 30.347656 L 34.992188 30.332031 L 35.035156 30.347656 C 35.183594 30.347656 35.332031 30.328125 35.425781 30.25 C 35.425781 30.25 35.296875 29.890625 35.441406 29.496094 " fill-opacity="1" fill-rule="nonzero"/><path fill="#f68c82" d="M 34.339844 29.675781 C 34.339844 29.675781 34.710938 30.242188 35.335938 29.820312 C 35.8125 29.5 35.820312 27.917969 35.558594 27.621094 C 35.300781 27.328125 34.496094 27.222656 34.199219 27.832031 C 33.964844 28.308594 34.074219 29.265625 34.339844 29.675781 " fill-opacity="1" fill-rule="nonzero"/><path fill="#f68c82" d="M 38.484375 26.421875 C 38.496094 26.425781 38.511719 26.433594 38.523438 26.4375 C 38.546875 26.449219 38.609375 26.527344 38.632812 26.539062 C 38.695312 26.699219 38.738281 27.152344 38.597656 27.4375 C 38.597656 27.4375 38.261719 27.472656 37.933594 27.15625 C 37.933594 27.15625 37.746094 26.898438 37.871094 26.671875 C 37.894531 26.632812 37.820312 26.597656 37.882812 26.515625 C 38.097656 26.320312 38.25 26.386719 38.484375 26.421875 " fill-opacity="1" fill-rule="nonzero"/><path fill="#e66f64" d="M 30.78125 27.679688 C 30.769531 27.683594 30.753906 27.691406 30.742188 27.695312 C 30.71875 27.707031 30.652344 27.785156 30.632812 27.796875 C 30.566406 27.957031 30.515625 28.40625 30.652344 28.695312 C 30.652344 28.695312 30.988281 28.734375 31.320312 28.425781 C 31.320312 28.425781 31.511719 28.171875 31.390625 27.941406 C 31.371094 27.902344 31.441406 27.867188 31.378906 27.785156 C 31.171875 27.585938 31.015625 27.648438 30.78125 27.679688 " fill-opacity="1" fill-rule="nonzero"/><path fill="#2e3192" d="M 34.605469 29.117188 C 34.605469 29.117188 34.933594 28.835938 35.265625 29.117188 C 35.59375 29.402344 35.742188 30.152344 34.980469 30.347656 C 34.980469 30.347656 33.839844 30.160156 34.605469 29.117188 " fill-opacity="1" fill-rule="nonzero"/><path fill="#2e3192" d="M 34.46875 27.726562 C 34.46875 27.726562 34.945312 27.949219 35.753906 28.457031 L 35.621094 29.347656 C 35.621094 29.347656 36.59375 27.292969 34.902344 27.167969 C 34.902344 27.167969 34.0625 27.375 34.46875 27.726562 " fill-opacity="1" fill-rule="nonzero"/><path fill="#2e3192" d="M 34.589844 27.734375 C 34.589844 27.734375 34.222656 28.609375 34.082031 28.765625 C 34.082031 28.765625 34.117188 29.152344 34.195312 29.347656 C 34.269531 29.539062 33.410156 27.917969 34.484375 27.464844 L 34.589844 27.734375 " fill-opacity="1" fill-rule="nonzero"/><path fill="#2e3192" d="M 39.582031 38.640625 C 39.582031 41.035156 37.648438 42.972656 35.261719 42.972656 C 32.878906 42.972656 30.945312 41.035156 30.945312 38.640625 C 30.945312 36.25 32.878906 34.308594 35.261719 34.308594 C 37.648438 34.308594 39.582031 36.25 39.582031 38.640625 " fill-opacity="1" fill-rule="nonzero"/><path fill="#fbc9e7" d="M 39.339844 38.640625 C 39.339844 40.898438 37.511719 42.730469 35.261719 42.730469 C 33.011719 42.730469 31.1875 40.898438 31.1875 38.640625 C 31.1875 36.382812 33.011719 34.550781 35.261719 34.550781 C 37.511719 34.550781 39.339844 36.382812 39.339844 38.640625 " fill-opacity="1" fill-rule="nonzero"/><path fill="#966e98" d="M 35.6875 34.574219 C 36.253906 35.40625 36.585938 36.40625 36.585938 37.472656 C 36.585938 39.609375 35.253906 41.476562 33.390625 42.273438 C 33.953125 42.566406 34.585938 42.730469 35.261719 42.730469 C 37.511719 42.730469 39.339844 40.898438 39.339844 38.640625 C 39.339844 36.527344 37.738281 34.789062 35.6875 34.574219 " fill-opacity="1" fill-rule="nonzero"/><path fill="#fbc9e7" d="M 42.136719 34.800781 L 39.226562 35.535156 L 38.945312 34.40625 L 41.859375 33.675781 L 42.136719 34.800781 " fill-opacity="1" fill-rule="nonzero"/><path fill="#966e98" d="M 40.777344 34.472656 C 40.777344 34.730469 40.707031 34.980469 40.582031 35.191406 L 42.136719 34.800781 L 41.859375 33.675781 L 40.683594 33.96875 C 40.742188 34.128906 40.777344 34.296875 40.777344 34.472656 " fill-opacity="1" fill-rule="nonzero"/><path fill="#26285d" d="M 42.453125 34.722656 C 42.46875 34.796875 41.695312 35.050781 40.722656 35.296875 C 39.75 35.539062 38.945312 35.679688 38.929688 35.609375 C 38.910156 35.535156 39.683594 35.28125 40.65625 35.035156 C 41.628906 34.792969 42.433594 34.652344 42.453125 34.722656 " fill-opacity="1" fill-rule="nonzero"/><path fill="#fbc9e7" d="M 30.972656 36.035156 L 27.8125 34.667969 L 28.339844 33.445312 L 31.5 34.8125 L 30.972656 36.035156 " fill-opacity="1" fill-rule="nonzero"/><path fill="#966e98" d="M 30.148438 34.226562 C 29.917969 34.625 29.636719 34.992188 29.316406 35.316406 L 30.972656 36.035156 L 31.5 34.8125 L 30.148438 34.226562 " fill-opacity="1" fill-rule="nonzero"/><path fill="#26285d" d="M 31.3125 36.183594 C 31.28125 36.261719 30.398438 35.953125 29.339844 35.496094 C 28.285156 35.039062 27.457031 34.605469 27.488281 34.527344 C 27.523438 34.449219 28.40625 34.757812 29.460938 35.214844 C 30.519531 35.671875 31.347656 36.105469 31.3125 36.183594 " fill-opacity="1" fill-rule="nonzero"/><path fill="#26285d" d="M 44.308594 41.746094 C 44.308594 41.785156 44.273438 41.816406 44.230469 41.816406 C 44.1875 41.816406 44.152344 41.785156 44.152344 41.746094 L 44.152344 30.515625 C 44.152344 30.476562 44.1875 30.445312 44.230469 30.445312 C 44.273438 30.445312 44.308594 30.476562 44.308594 30.515625 L 44.308594 41.746094 " fill-opacity="1" fill-rule="nonzero"/><path fill="#26285d" d="M 45.511719 43.046875 C 45.480469 43.078125 45.433594 43.078125 45.402344 43.046875 L 44.175781 41.816406 C 44.144531 41.785156 44.144531 41.734375 44.175781 41.703125 C 44.207031 41.671875 44.253906 41.671875 44.285156 41.703125 L 45.511719 42.933594 C 45.542969 42.964844 45.542969 43.015625 45.511719 43.046875 " fill-opacity="1" fill-rule="nonzero"/><path fill="#26285d" d="M 42.914062 43.027344 C 42.882812 42.996094 42.882812 42.945312 42.914062 42.914062 L 44.175781 41.71875 C 44.207031 41.691406 44.257812 41.691406 44.289062 41.722656 C 44.316406 41.753906 44.316406 41.804688 44.285156 41.835938 L 43.023438 43.03125 C 42.992188 43.058594 42.941406 43.058594 42.914062 43.027344 " fill-opacity="1" fill-rule="nonzero"/><path fill="#26285d" d="M 26.726562 41.769531 C 26.726562 41.804688 26.691406 41.832031 26.648438 41.832031 C 26.605469 41.832031 26.570312 41.804688 26.570312 41.769531 L 26.570312 32.453125 C 26.570312 32.417969 26.605469 32.390625 26.648438 32.390625 C 26.691406 32.390625 26.726562 32.417969 26.726562 32.453125 L 26.726562 41.769531 " fill-opacity="1" fill-rule="nonzero"/><path fill="#26285d" d="M 27.929688 42.847656 C 27.902344 42.875 27.851562 42.875 27.820312 42.847656 L 26.59375 41.828125 C 26.5625 41.800781 26.5625 41.761719 26.59375 41.734375 C 26.625 41.710938 26.675781 41.710938 26.703125 41.734375 L 27.929688 42.757812 C 27.960938 42.78125 27.960938 42.824219 27.929688 42.847656 " fill-opacity="1" fill-rule="nonzero"/><path fill="#26285d" d="M 25.332031 42.832031 C 25.300781 42.808594 25.304688 42.765625 25.335938 42.742188 L 26.597656 41.75 C 26.628906 41.726562 26.675781 41.726562 26.707031 41.753906 C 26.734375 41.777344 26.734375 41.820312 26.703125 41.84375 L 25.441406 42.835938 C 25.410156 42.859375 25.363281 42.859375 25.332031 42.832031 " fill-opacity="1" fill-rule="nonzero"/><path fill="#26285d" d="M 25.5 34.546875 C 25.464844 34.535156 25.457031 34.484375 25.484375 34.433594 L 26.617188 32.410156 C 26.644531 32.359375 26.699219 32.328125 26.738281 32.339844 C 26.773438 32.351562 26.78125 32.402344 26.753906 32.453125 L 25.621094 34.480469 C 25.59375 34.53125 25.539062 34.558594 25.5 34.546875 " fill-opacity="1" fill-rule="nonzero"/><path fill="#fbc9e7" d="M 43.296875 37.050781 L 40.21875 37.429688 L 40.117188 36.601562 L 43.195312 36.226562 L 43.296875 37.050781 " fill-opacity="1" fill-rule="nonzero"/><path fill="#26285d" d="M 43.707031 37.058594 C 43.714844 37.128906 42.871094 37.289062 41.820312 37.417969 C 40.769531 37.546875 39.910156 37.59375 39.902344 37.523438 C 39.890625 37.457031 40.738281 37.296875 41.789062 37.167969 C 42.839844 37.039062 43.699219 36.988281 43.707031 37.058594 " fill-opacity="1" fill-rule="nonzero"/><path fill="#26285d" d="M 43.195312 36.203125 C 43.203125 36.265625 42.519531 36.40625 41.671875 36.519531 C 40.820312 36.628906 40.125 36.664062 40.117188 36.601562 C 40.109375 36.535156 40.792969 36.394531 41.640625 36.285156 C 42.488281 36.171875 43.183594 36.136719 43.195312 36.203125 " fill-opacity="1" fill-rule="nonzero"/><path fill="#26285d" d="M 42.003906 42.453125 C 42.003906 42.46875 41.960938 42.484375 41.90625 42.484375 C 41.851562 42.484375 41.8125 42.46875 41.8125 42.453125 L 41.8125 38.039062 C 41.8125 38.023438 41.851562 38.011719 41.90625 38.011719 C 41.960938 38.011719 42.003906 38.023438 42.003906 38.039062 L 42.003906 42.453125 " fill-opacity="1" fill-rule="nonzero"/><path fill="#26285d" d="M 43.457031 43.0625 C 43.421875 43.089844 43.359375 43.089844 43.324219 43.0625 L 41.820312 42.015625 C 41.78125 41.988281 41.78125 41.949219 41.820312 41.921875 C 41.855469 41.894531 41.917969 41.894531 41.953125 41.921875 L 43.457031 42.96875 C 43.496094 42.992188 43.496094 43.035156 43.457031 43.0625 " fill-opacity="1" fill-rule="nonzero"/><path fill="#26285d" d="M 40.269531 43.046875 C 40.234375 43.019531 40.234375 42.976562 40.273438 42.949219 L 41.820312 41.933594 C 41.859375 41.910156 41.917969 41.910156 41.957031 41.9375 C 41.992188 41.964844 41.992188 42.007812 41.953125 42.03125 L 40.40625 43.046875 C 40.367188 43.074219 40.304688 43.070312 40.269531 43.046875 " fill-opacity="1" fill-rule="nonzero"/><path fill="#26285d" d="M 41.894531 38.136719 C 41.859375 38.125 41.855469 38.097656 41.886719 38.074219 L 43.191406 37.082031 C 43.222656 37.058594 43.277344 37.046875 43.3125 37.058594 C 43.351562 37.070312 43.355469 37.101562 43.320312 37.125 L 42.019531 38.113281 C 41.988281 38.140625 41.929688 38.148438 41.894531 38.136719 " fill-opacity="1" fill-rule="nonzero"/><path fill="#26285d" d="M 41.960938 38.101562 C 41.992188 38.078125 41.984375 38.050781 41.945312 38.035156 L 40.332031 37.449219 C 40.292969 37.433594 40.238281 37.4375 40.207031 37.460938 C 40.175781 37.480469 40.183594 37.507812 40.222656 37.523438 L 41.835938 38.109375 C 41.875 38.125 41.933594 38.121094 41.960938 38.101562 " fill-opacity="1" fill-rule="nonzero"/><path fill="#fab43d" d="M 46.753906 32.398438 C 46.757812 32.542969 45.628906 32.6875 44.238281 32.722656 C 42.84375 32.757812 41.710938 32.667969 41.707031 32.527344 C 41.703125 32.382812 44.230469 31.953125 44.230469 31.953125 C 44.230469 31.953125 46.75 32.257812 46.753906 32.398438 " fill-opacity="1" fill-rule="nonzero"/><path fill="#fab43d" d="M 41.707031 32.566406 C 41.703125 32.425781 42.832031 32.28125 44.222656 32.246094 C 45.617188 32.210938 46.75 32.296875 46.753906 32.441406 C 46.757812 32.582031 44.230469 33.011719 44.230469 33.011719 C 44.230469 33.011719 41.710938 32.710938 41.707031 32.566406 " fill-opacity="1" fill-rule="nonzero"/><g clip-path="url(#5b0b153645)"><path fill="#fab43d" d="M 29.035156 33.269531 C 29.003906 33.410156 27.875 33.269531 26.515625 32.960938 C 25.160156 32.652344 24.082031 32.285156 24.113281 32.148438 C 24.144531 32.007812 26.699219 32.214844 26.699219 32.214844 C 26.699219 32.214844 29.066406 33.132812 29.035156 33.269531 " fill-opacity="1" fill-rule="nonzero"/></g><path fill="#2e3192" d="M 34.125 27.78125 C 34.125 27.78125 33.847656 27.710938 33.683594 27.257812 C 33.683594 27.257812 33.957031 27.390625 34.292969 27.429688 C 34.292969 27.429688 33.828125 26.992188 33.761719 26.417969 C 33.761719 26.417969 34.285156 27.109375 34.6875 27.203125 C 34.6875 27.203125 34.546875 26.996094 34.636719 26.804688 C 34.636719 26.804688 35.304688 27.234375 35.34375 27.265625 C 35.382812 27.296875 34.957031 27.621094 34.957031 27.621094 L 34.125 27.78125 " fill-opacity="1" fill-rule="nonzero"/><path fill="#2e3192" d="M 34.542969 27.824219 C 34.542969 27.824219 34.746094 28.675781 35.21875 28.753906 C 35.21875 28.753906 35.035156 28.507812 34.933594 28.183594 C 34.933594 28.183594 35.597656 28.589844 36.171875 28.546875 C 36.171875 28.546875 35.25 28.132812 35.082031 27.75 C 35.082031 27.75 35.3125 27.851562 35.480469 27.726562 C 35.480469 27.726562 34.96875 27.132812 34.929688 27.101562 C 34.886719 27.066406 34.625 27.566406 34.625 27.566406 L 34.542969 27.824219 " fill-opacity="1" fill-rule="nonzero"/><path fill="#2e3192" d="M 37.988281 27.320312 C 38.035156 27.332031 38.636719 27.34375 38.691406 27.4375 C 38.742188 27.53125 38.816406 28.761719 38.796875 28.753906 C 38.777344 28.746094 38.054688 28.949219 37.585938 28.679688 L 37.988281 27.320312 " fill-opacity="1" fill-rule="nonzero"/><path fill="#ffffff" d="M 38.542969 27.550781 C 38.542969 27.601562 38.5 27.644531 38.449219 27.644531 C 38.398438 27.644531 38.355469 27.601562 38.355469 27.550781 C 38.355469 27.5 38.398438 27.457031 38.449219 27.457031 C 38.5 27.457031 38.542969 27.5 38.542969 27.550781 " fill-opacity="1" fill-rule="nonzero"/><path fill="#ffffff" d="M 38.542969 27.976562 C 38.542969 28.027344 38.5 28.070312 38.449219 28.070312 C 38.398438 28.070312 38.355469 28.027344 38.355469 27.976562 C 38.355469 27.925781 38.398438 27.882812 38.449219 27.882812 C 38.5 27.882812 38.542969 27.925781 38.542969 27.976562 " fill-opacity="1" fill-rule="nonzero"/><path fill="#ffffff" d="M 38.492188 28.414062 C 38.492188 28.464844 38.449219 28.507812 38.398438 28.507812 C 38.347656 28.507812 38.304688 28.464844 38.304688 28.414062 C 38.304688 28.363281 38.347656 28.320312 38.398438 28.320312 C 38.449219 28.320312 38.492188 28.363281 38.492188 28.414062 " fill-opacity="1" fill-rule="nonzero"/><path fill="#2e3192" d="M 35.515625 30.085938 L 35.878906 29.859375 C 35.878906 29.859375 38.339844 32.167969 38.722656 33.484375 C 38.722656 33.484375 37.429688 34.292969 36.652344 34.246094 C 36.652344 34.246094 36.125 31.238281 35.515625 30.085938 " fill-opacity="1" fill-rule="nonzero"/><path fill="#2e3192" d="M 34.261719 29.992188 L 33.855469 29.859375 C 33.855469 29.859375 32.023438 32.691406 31.964844 34.066406 C 31.964844 34.066406 33.414062 34.539062 34.160156 34.304688 C 34.160156 34.304688 33.949219 31.257812 34.261719 29.992188 " fill-opacity="1" fill-rule="nonzero"/><path fill="#2e3192" d="M 30.683594 28.695312 C 30.683594 28.695312 31.222656 28.449219 31.234375 28.566406 C 31.246094 28.652344 31.527344 29.433594 31.710938 29.535156 C 31.710938 29.535156 31.003906 30.144531 30.757812 29.953125 C 30.757812 29.953125 30.570312 29.730469 30.683594 28.695312 " fill-opacity="1" fill-rule="nonzero"/><path fill="#ffffff" d="M 30.945312 28.863281 C 30.945312 28.914062 30.902344 28.957031 30.851562 28.957031 C 30.800781 28.957031 30.757812 28.914062 30.757812 28.863281 C 30.757812 28.8125 30.800781 28.769531 30.851562 28.769531 C 30.902344 28.769531 30.945312 28.8125 30.945312 28.863281 " fill-opacity="1" fill-rule="nonzero"/><path fill="#ffffff" d="M 30.945312 29.214844 C 30.945312 29.269531 30.902344 29.308594 30.851562 29.308594 C 30.800781 29.308594 30.757812 29.269531 30.757812 29.214844 C 30.757812 29.164062 30.800781 29.125 30.851562 29.125 C 30.902344 29.125 30.945312 29.164062 30.945312 29.214844 " fill-opacity="1" fill-rule="nonzero"/><path fill="#ffffff" d="M 31.035156 29.652344 C 31.035156 29.703125 30.996094 29.746094 30.945312 29.746094 C 30.890625 29.746094 30.851562 29.703125 30.851562 29.652344 C 30.851562 29.601562 30.890625 29.558594 30.945312 29.558594 C 30.996094 29.558594 31.035156 29.601562 31.035156 29.652344 " fill-opacity="1" fill-rule="nonzero"/><path fill="#f68c82" d="M 35.832031 29.054688 C 35.789062 29.1875 35.683594 29.269531 35.597656 29.238281 C 35.511719 29.210938 35.476562 29.078125 35.523438 28.949219 C 35.566406 28.816406 35.671875 28.730469 35.757812 28.761719 C 35.84375 28.789062 35.878906 28.921875 35.832031 29.054688 " fill-opacity="1" fill-rule="nonzero"/><path fill="#f68c82" d="M 34.28125 28.933594 C 34.234375 28.800781 34.128906 28.71875 34.042969 28.746094 C 33.957031 28.777344 33.921875 28.90625 33.96875 29.039062 C 34.011719 29.171875 34.117188 29.253906 34.203125 29.226562 C 34.289062 29.195312 34.324219 29.066406 34.28125 28.933594 " fill-opacity="1" fill-rule="nonzero"/><path fill="#44348a" d="M 43.726562 38.894531 L 43.789062 43.886719 C 43.789062 43.886719 47.132812 44.742188 50.082031 43.886719 L 48.296875 39.683594 L 47.78125 37.425781 L 43.726562 38.894531 " fill-opacity="1" fill-rule="nonzero"/><g clip-path="url(#2ef6071cf5)"><path fill="#24265d" d="M 49.113281 44.675781 L 49.320312 45.414062 C 49.320312 45.414062 49.195312 45.851562 49.089844 46.183594 C 49.050781 46.308594 49.050781 46.308594 49.050781 46.308594 L 49.105469 46.457031 C 49.105469 46.457031 50.503906 46.445312 50.570312 46.429688 C 50.636719 46.414062 51.0625 46.15625 51.0625 46.15625 L 50.582031 45.289062 L 50.015625 44.324219 L 49.121094 44.636719 " fill-opacity="1" fill-rule="nonzero"/></g><path fill="#24265d" d="M 43.289062 44.492188 L 43.328125 45.863281 C 43.328125 45.863281 42.625 45.96875 42.628906 45.980469 C 42.632812 45.992188 41.335938 46.375 41.335938 46.375 L 40.433594 46.359375 L 40.371094 46.089844 L 41.957031 45.066406 L 42.25 44.410156 L 43.289062 44.492188 " fill-opacity="1" fill-rule="nonzero"/><path fill="#2e3192" d="M 47.1875 29.882812 C 47.1875 29.882812 47.25 30.484375 48.207031 30.417969 C 49.160156 30.355469 48.8125 30.746094 48.777344 31.019531 C 48.746094 31.296875 48.882812 31.324219 49.140625 31.421875 C 49.394531 31.515625 49.71875 31.664062 49.785156 32.195312 C 49.851562 32.722656 49.082031 33.636719 49.066406 33.644531 C 49.046875 33.652344 47.492188 32.273438 47.429688 32.214844 C 47.363281 32.160156 46.847656 31.832031 46.722656 31.730469 C 46.59375 31.625 46.210938 31.621094 46.210938 31.621094 L 45.320312 32.5 L 44.875 31.972656 C 44.875 31.972656 45.261719 31.835938 45.214844 31.546875 C 45.167969 31.257812 44.964844 31.253906 45.15625 30.980469 C 45.347656 30.703125 45.363281 30.121094 45.203125 29.972656 C 45.046875 29.824219 47.1875 29.882812 47.1875 29.882812 " fill-opacity="1" fill-rule="nonzero"/><path fill="#24265d" d="M 46.1875 36.535156 L 45.675781 37.328125 L 42.277344 39.269531 L 42.597656 40.046875 L 43.804688 40.304688 L 47.339844 38.738281 L 47.789062 36.5625 L 46.1875 36.535156 " fill-opacity="1" fill-rule="nonzero"/><path fill="#24265d" d="M 42.683594 39.34375 L 42.277344 39.269531 L 42.148438 44.585938 L 42.835938 44.875 L 43.59375 44.730469 L 43.804688 40.304688 L 42.683594 39.34375 " fill-opacity="1" fill-rule="nonzero"/><path fill="#2e3192" d="M 47.734375 36.742188 L 45.917969 40.804688 L 46.605469 41.335938 L 47.960938 41.167969 L 49.0625 38.347656 L 49.0625 36.71875 L 47.734375 36.742188 " fill-opacity="1" fill-rule="nonzero"/><path fill="#5d5fb5" d="M 46.882812 36.953125 C 46.882812 36.953125 48.3125 40.492188 48.695312 41.238281 C 49.078125 41.980469 50.378906 44.019531 50.378906 44.019531 L 49.347656 40.261719 L 49.210938 36.9375 L 47.191406 36.375 L 46.882812 36.953125 " fill-opacity="1" fill-rule="nonzero"/><path fill="#2e3192" d="M 46.167969 40.707031 L 45.917969 40.804688 L 49.097656 45.101562 C 49.097656 45.101562 50.050781 44.929688 50.15625 44.917969 C 50.265625 44.90625 50.378906 44.496094 50.378906 44.496094 L 48.105469 40.800781 L 46.167969 40.707031 " fill-opacity="1" fill-rule="nonzero"/><path fill="#44348a" d="M 43.890625 34.613281 L 43.058594 35.339844 L 42.703125 35.769531 L 42.949219 36.304688 L 43.539062 36.195312 L 44.367188 35.433594 L 43.890625 34.613281 " fill-opacity="1" fill-rule="nonzero"/><path fill="#44348a" d="M 44.933594 32 L 44.800781 31.980469 L 43.726562 35.066406 L 44.351562 35.460938 L 44.984375 34.445312 L 45.65625 33.359375 L 44.933594 32 " fill-opacity="1" fill-rule="nonzero"/><path fill="#5d5fb5" d="M 45.628906 31.726562 L 45.574219 31.667969 L 44.800781 31.980469 C 44.800781 31.980469 45.339844 33.269531 45.324219 33.234375 C 45.308594 33.199219 46.167969 34.71875 46.167969 34.71875 L 46.054688 36.628906 C 46.054688 36.628906 47.519531 37.363281 49.210938 36.9375 C 49.210938 36.9375 48.945312 34.386719 48.902344 33.976562 C 48.859375 33.570312 48.597656 32.257812 48.597656 32.257812 C 48.597656 32.257812 47.921875 31.484375 47.757812 31.28125 L 46.453125 32.25 L 45.628906 31.726562 " fill-opacity="1" fill-rule="nonzero"/><path fill="#24265d" d="M 46.976562 36.914062 C 46.605469 36.871094 46.496094 36.636719 46.40625 36.511719 C 46.3125 36.390625 46.304688 35.785156 45.695312 35.636719 C 45.484375 35.582031 45.339844 35.625 45.4375 35.785156 C 45.496094 35.878906 45.734375 36.035156 45.765625 36.175781 C 45.878906 36.683594 45.328125 36.734375 45.328125 36.734375 L 44.671875 37.082031 C 44.671875 37.082031 44.699219 37.289062 44.4375 37.429688 C 44.394531 37.449219 44.140625 37.476562 44.011719 37.367188 C 43.691406 37.097656 43.671875 37.4375 43.789062 37.625 C 44.128906 38.15625 44.851562 38.164062 44.996094 38.210938 C 45.144531 38.261719 45.4375 38.210938 45.683594 38.671875 C 45.867188 39.019531 45.871094 39.734375 46.539062 40.121094 C 47.210938 40.507812 47.984375 40.050781 48.492188 39.351562 C 48.988281 38.644531 49.230469 37.804688 48.664062 37.277344 C 48.214844 36.859375 47.234375 36.945312 46.976562 36.914062 " fill-opacity="1" fill-rule="nonzero"/><path fill="#24265d" d="M 45.328125 36.734375 L 44.941406 37.277344 L 40.796875 34.234375 L 41.125 33.773438 L 45.328125 36.734375 " fill-opacity="1" fill-rule="nonzero"/><path stroke-linecap="butt" transform="matrix(0.00158297, 0, 0, -0.00158833, 21.803723, 53.454467)" fill="none" stroke-linejoin="miter" d="M 16299.551162 9545.558604 L 16005.898768 9137.307527 L 15801.082392 9284.868158 L 16094.734786 9693.119234 Z M 16299.551162 9545.558604 " stroke="#4e5152" stroke-width="24.306999" stroke-opacity="1" stroke-miterlimit="10"/><path fill="#4e5152" d="M 47.550781 38.292969 L 47.125 38.886719 L 46.875 38.707031 L 47.296875 38.109375 L 47.550781 38.292969 " fill-opacity="1" fill-rule="nonzero"/><path stroke-linecap="butt" transform="matrix(0.00156378, 0, 0, -0.00156907, 21.803723, 53.454467)" fill="none" stroke-linejoin="miter" d="M 12368.021517 12495.833569 L 16299.812027 9754.85513 " stroke="#4e5152" stroke-width="21.766001" stroke-opacity="1" stroke-miterlimit="10"/><path stroke-linecap="butt" transform="matrix(0.00155872, 0, 0, -0.00156399, 21.803723, 53.454467)" fill="none" stroke-linejoin="miter" d="M 12378.096743 12493.937517 L 16300.095685 9714.090031 " stroke="#4e5152" stroke-width="21.837" stroke-opacity="1" stroke-miterlimit="10"/><path stroke-linecap="butt" transform="matrix(0.0015538, 0, 0, -0.00155906, 21.803723, 53.454467)" fill="none" stroke-linejoin="miter" d="M 12376.99642 12478.306219 L 16298.821695 9672.133812 " stroke="#4e5152" stroke-width="21.905001" stroke-opacity="1" stroke-miterlimit="10"/><path stroke-linecap="butt" transform="matrix(0.00153967, 0, 0, -0.00154488, 21.803723, 53.454467)" fill="none" stroke-linejoin="miter" d="M 12381.550692 12441.173992 L 16298.793892 9553.607255 " stroke="#4e5152" stroke-width="22.107" stroke-opacity="1" stroke-miterlimit="10"/><path stroke-linecap="butt" transform="matrix(0.00154473, 0, 0, -0.00154995, 21.803723, 53.454467)" fill="none" stroke-linejoin="miter" d="M 12373.867906 12443.266062 L 16301.038752 9595.400568 " stroke="#4e5152" stroke-width="22.035" stroke-opacity="1" stroke-miterlimit="10"/><path stroke-linecap="butt" transform="matrix(0.00154964, 0, 0, -0.00155488, 21.803723, 53.454467)" fill="none" stroke-linejoin="miter" d="M 12372.463839 12459.100939 L 16299.792428 9637.846494 " stroke="#4e5152" stroke-width="21.965" stroke-opacity="1" stroke-miterlimit="10"/><path fill="#24265d" d="M 41.207031 33.78125 L 40.832031 34.308594 L 40.773438 34.265625 L 41.148438 33.738281 L 41.207031 33.78125 " fill-opacity="1" fill-rule="nonzero"/><path fill="#24265d" d="M 41.140625 33.789062 L 41.074219 33.738281 C 41.074219 33.738281 41.003906 33.671875 41.070312 33.535156 C 41.136719 33.398438 40.921875 33.34375 40.75 33.316406 C 40.234375 33.234375 39.820312 32.996094 39.820312 32.996094 C 39.820312 32.996094 40.019531 32.808594 39.8125 32.613281 C 39.625 32.433594 39.308594 32.601562 39.359375 32.875 C 39.386719 33.039062 39.753906 33.507812 40.207031 34.117188 C 40.28125 34.214844 40.347656 34.304688 40.441406 34.304688 C 40.5625 34.304688 40.742188 34.191406 40.742188 34.191406 L 40.816406 34.246094 L 41.140625 33.789062 " fill-opacity="1" fill-rule="nonzero"/><path fill="#24265d" d="M 39.851562 33.75 C 39.871094 33.777344 39.867188 33.8125 39.84375 33.832031 C 39.816406 33.851562 39.78125 33.847656 39.761719 33.824219 L 39.714844 33.765625 C 39.691406 33.738281 39.695312 33.703125 39.722656 33.683594 C 39.746094 33.664062 39.785156 33.667969 39.804688 33.691406 L 39.851562 33.75 " fill-opacity="1" fill-rule="nonzero"/><path fill="#24265d" d="M 39.933594 33.671875 L 39.816406 33.765625 L 39.78125 33.722656 L 39.898438 33.628906 L 39.933594 33.671875 " fill-opacity="1" fill-rule="nonzero"/><path fill="#24265d" d="M 39.992188 33.945312 C 40.015625 33.96875 40.011719 34.007812 39.984375 34.027344 C 39.960938 34.046875 39.921875 34.042969 39.902344 34.019531 L 39.855469 33.957031 C 39.835938 33.933594 39.839844 33.898438 39.863281 33.875 C 39.890625 33.855469 39.925781 33.859375 39.945312 33.886719 L 39.992188 33.945312 " fill-opacity="1" fill-rule="nonzero"/><path fill="#24265d" d="M 40.078125 33.867188 L 39.960938 33.960938 L 39.925781 33.917969 L 40.042969 33.820312 L 40.078125 33.867188 " fill-opacity="1" fill-rule="nonzero"/><path fill="#24265d" d="M 40.144531 34.128906 C 40.164062 34.15625 40.160156 34.191406 40.136719 34.210938 C 40.109375 34.230469 40.074219 34.226562 40.054688 34.203125 L 40.007812 34.144531 C 39.988281 34.117188 39.992188 34.082031 40.015625 34.0625 C 40.039062 34.039062 40.078125 34.046875 40.097656 34.070312 L 40.144531 34.128906 " fill-opacity="1" fill-rule="nonzero"/><path fill="#24265d" d="M 40.226562 34.050781 L 40.109375 34.144531 L 40.074219 34.101562 L 40.191406 34.007812 L 40.226562 34.050781 " fill-opacity="1" fill-rule="nonzero"/><path fill="#24265d" d="M 39.429688 33.191406 C 39.449219 33.214844 39.445312 33.253906 39.417969 33.273438 C 39.394531 33.292969 39.359375 33.289062 39.335938 33.265625 L 39.289062 33.203125 C 39.269531 33.179688 39.273438 33.144531 39.300781 33.121094 C 39.324219 33.101562 39.359375 33.105469 39.378906 33.132812 L 39.429688 33.191406 " fill-opacity="1" fill-rule="nonzero"/><path fill="#24265d" d="M 39.511719 33.113281 L 39.394531 33.207031 L 39.359375 33.164062 L 39.476562 33.070312 L 39.511719 33.113281 " fill-opacity="1" fill-rule="nonzero"/><path fill="#24265d" d="M 39.570312 33.386719 C 39.589844 33.410156 39.585938 33.449219 39.5625 33.46875 C 39.535156 33.488281 39.5 33.484375 39.480469 33.457031 L 39.433594 33.398438 C 39.414062 33.375 39.417969 33.335938 39.441406 33.316406 C 39.464844 33.296875 39.503906 33.300781 39.523438 33.324219 L 39.570312 33.386719 " fill-opacity="1" fill-rule="nonzero"/><path fill="#24265d" d="M 39.652344 33.304688 L 39.535156 33.398438 L 39.5 33.355469 L 39.617188 33.261719 L 39.652344 33.304688 " fill-opacity="1" fill-rule="nonzero"/><path fill="#24265d" d="M 39.722656 33.570312 C 39.742188 33.59375 39.738281 33.632812 39.710938 33.652344 C 39.6875 33.671875 39.652344 33.667969 39.628906 33.644531 L 39.582031 33.582031 C 39.5625 33.558594 39.566406 33.519531 39.59375 33.5 C 39.617188 33.480469 39.652344 33.484375 39.671875 33.511719 L 39.722656 33.570312 " fill-opacity="1" fill-rule="nonzero"/><path fill="#24265d" d="M 39.804688 33.488281 L 39.6875 33.585938 L 39.652344 33.539062 L 39.769531 33.445312 L 39.804688 33.488281 " fill-opacity="1" fill-rule="nonzero"/><path fill="#4e5152" d="M 45.679688 36.832031 C 45.714844 36.855469 45.722656 36.902344 45.699219 36.9375 L 45.25 37.5625 C 45.226562 37.597656 45.179688 37.605469 45.144531 37.582031 C 45.109375 37.554688 45.101562 37.507812 45.128906 37.472656 L 45.574219 36.847656 C 45.597656 36.8125 45.648438 36.804688 45.679688 36.832031 " fill-opacity="1" fill-rule="nonzero"/><path fill="#4e5152" d="M 46.285156 37.265625 C 46.320312 37.289062 46.328125 37.335938 46.304688 37.371094 L 45.855469 37.996094 C 45.832031 38.03125 45.785156 38.039062 45.75 38.015625 C 45.714844 37.992188 45.707031 37.941406 45.730469 37.90625 L 46.179688 37.28125 C 46.203125 37.25 46.25 37.238281 46.285156 37.265625 " fill-opacity="1" fill-rule="nonzero"/><path fill="#4e5152" d="M 47.054688 37.824219 C 47.082031 37.855469 47.082031 37.902344 47.054688 37.933594 L 46.511719 38.480469 C 46.480469 38.507812 46.433594 38.507812 46.402344 38.480469 C 46.375 38.449219 46.375 38.398438 46.402344 38.371094 L 46.945312 37.824219 C 46.976562 37.796875 47.023438 37.796875 47.054688 37.824219 " fill-opacity="1" fill-rule="nonzero"/><path stroke-linecap="butt" transform="matrix(0.00166438, 0, 0, -0.00167001, 21.803723, 53.454467)" fill="none" stroke-linejoin="miter" d="M 13805.488354 9630.710647 C 13805.488354 9630.710647 14453.253537 9305.581416 14547.132549 9036.589606 C 14641.011561 8769.936855 14976.629028 8575.79494 15319.287422 9029.572428 C 15474.187792 9235.409639 15676.027668 9385.109429 15924.80705 9373.414133 C 16128.993901 9364.057896 16265.118468 9090.387968 16293.282172 9317.276712 C 16300.323097 9385.109429 16143.075752 9785.088555 15694.80347 9829.530681 C 15234.796311 9876.311865 14990.71088 9817.835385 14826.422609 10026.011655 C 14612.847857 10295.003465 14655.093412 10418.973603 14544.785573 10524.231268 C 14415.701932 10650.540466 14204.474155 10655.218584 14263.148537 10589.724926 C 14319.475945 10524.231268 14516.62187 10383.887715 14448.559586 10178.050504 C 14382.844278 9969.874234 13882.938539 9852.921273 13793.753477 9785.088555 C 13730.385144 9735.968312 13711.609342 9679.830891 13805.488354 9630.710647 Z M 13805.488354 9630.710647 " stroke="#4e5152" stroke-width="23.118999" stroke-opacity="1" stroke-miterlimit="10"/><path fill="#4e5152" d="M 47.816406 37.628906 C 47.863281 37.664062 47.871094 37.726562 47.839844 37.773438 C 47.804688 37.820312 47.742188 37.832031 47.695312 37.796875 C 47.648438 37.765625 47.636719 37.699219 47.671875 37.652344 C 47.703125 37.605469 47.769531 37.59375 47.816406 37.628906 " fill-opacity="1" fill-rule="nonzero"/><path fill="#4e5152" d="M 48.21875 37.535156 C 48.265625 37.566406 48.277344 37.632812 48.242188 37.679688 C 48.210938 37.726562 48.144531 37.738281 48.097656 37.703125 C 48.050781 37.671875 48.042969 37.605469 48.074219 37.558594 C 48.109375 37.511719 48.171875 37.5 48.21875 37.535156 " fill-opacity="1" fill-rule="nonzero"/><path fill="#4e5152" d="M 40.226562 33.984375 C 40.25 34.011719 40.292969 34.019531 40.324219 33.996094 C 40.355469 33.972656 40.359375 33.929688 40.335938 33.898438 L 39.652344 33.019531 C 39.628906 32.988281 39.585938 32.984375 39.554688 33.007812 C 39.527344 33.03125 39.519531 33.074219 39.542969 33.101562 L 40.226562 33.984375 " fill-opacity="1" fill-rule="nonzero"/><path fill="#e66f64" d="M 46.035156 30.90625 C 46.035156 30.90625 46.082031 31.140625 46.089844 31.441406 L 45.597656 31.695312 L 46.183594 32.765625 L 47.597656 31.398438 L 46.957031 31.21875 L 46.820312 30.628906 L 46.035156 30.90625 " fill-opacity="1" fill-rule="nonzero"/><path fill="#f68c82" d="M 45.054688 29.59375 C 44.972656 29.785156 44.917969 30.035156 45.152344 30.546875 C 45.285156 30.832031 45.339844 30.929688 45.515625 31.074219 C 45.585938 31.132812 45.953125 31.46875 46.011719 31.464844 C 46.066406 31.460938 46.785156 31.046875 46.8125 30.625 C 46.8125 30.625 46.90625 29.574219 46.460938 29.265625 C 45.984375 28.9375 45.230469 29.195312 45.054688 29.59375 " fill-opacity="1" fill-rule="nonzero"/><path fill="#f68c82" d="M 45.019531 30.183594 C 45.175781 30.746094 45.757812 31.082031 46.320312 30.925781 C 46.882812 30.769531 47.214844 30.1875 47.058594 29.621094 C 46.90625 29.054688 46.324219 28.722656 45.757812 28.878906 C 45.195312 29.035156 44.863281 29.617188 45.019531 30.183594 " fill-opacity="1" fill-rule="nonzero"/><path fill="#2e3192" d="M 45.140625 29.992188 C 45.167969 29.96875 45.203125 29.988281 45.246094 30.019531 C 45.300781 30.058594 45.347656 30.109375 45.410156 30.140625 C 45.554688 30.210938 45.71875 30.28125 45.882812 30.28125 C 46.019531 30.28125 46.15625 30.273438 46.292969 30.273438 C 46.367188 30.273438 46.460938 30.261719 46.539062 30.277344 C 46.601562 30.292969 46.636719 30.339844 46.691406 30.363281 C 46.75 30.390625 46.765625 30.320312 46.820312 30.296875 C 46.910156 30.261719 47.011719 30.332031 47.082031 30.378906 C 47.109375 30.28125 47.144531 30.179688 47.175781 30.082031 C 47.226562 29.925781 47.136719 29.75 47.085938 29.601562 C 47.058594 29.515625 47.046875 29.433594 47.003906 29.347656 C 46.917969 29.164062 46.800781 29.027344 46.632812 28.914062 C 46.503906 28.824219 46.304688 28.796875 46.144531 28.78125 C 45.996094 28.769531 45.753906 28.746094 45.617188 28.800781 C 45.367188 28.898438 45.199219 29.167969 45.050781 29.375 C 44.972656 29.484375 44.878906 29.632812 44.855469 29.773438 C 44.832031 29.878906 44.851562 30.058594 44.933594 30.140625 C 45.035156 30.242188 45.074219 30.101562 45.113281 30.027344 C 45.121094 30.011719 45.132812 30 45.140625 29.992188 " fill-opacity="1" fill-rule="nonzero"/><path fill="#f68c82" d="M 46.808594 30.667969 C 46.808594 30.667969 47.074219 30.480469 47.015625 30.15625 C 46.894531 29.511719 46.742188 30.304688 46.742188 30.304688 C 46.742188 30.304688 46.710938 30.445312 46.808594 30.667969 " fill-opacity="1" fill-rule="nonzero"/><path fill="#7276c3" d="M 47.835938 31.375 L 49.105469 32.046875 L 49.347656 35.851562 L 48.488281 35.871094 L 48.222656 33.847656 L 47.847656 33.347656 L 47.835938 31.375 " fill-opacity="1" fill-rule="nonzero"/><path fill="#f68c82" d="M 45.902344 36.34375 L 45.417969 36.140625 L 45.089844 36.140625 L 44.933594 36.082031 L 44.984375 36.21875 L 45.09375 36.273438 L 44.921875 36.304688 L 44.59375 36.058594 L 44.445312 36.054688 L 44.605469 36.285156 L 44.578125 36.367188 L 44.78125 36.695312 L 44.804688 36.832031 L 45.234375 37.121094 L 46.085938 36.792969 L 45.902344 36.34375 " fill-opacity="1" fill-rule="nonzero"/><path fill="#7276c3" d="M 48.378906 35.035156 L 49.347656 35.851562 L 45.90625 36.898438 L 45.695312 36.121094 L 48.378906 35.035156 " fill-opacity="1" fill-rule="nonzero"/><path fill="#e66f64" d="M 42.976562 35.632812 C 42.976562 35.632812 42.875 35.5 42.824219 35.472656 C 42.773438 35.445312 42.652344 35.417969 42.617188 35.421875 C 42.582031 35.421875 42.574219 35.511719 42.574219 35.511719 C 42.574219 35.511719 42.707031 35.613281 42.726562 35.644531 C 42.742188 35.671875 42.808594 35.777344 42.808594 35.777344 L 42.976562 35.632812 " fill-opacity="1" fill-rule="nonzero"/><path fill="#f68c82" d="M 43.144531 35.253906 C 43.144531 35.253906 43.050781 35.28125 43.023438 35.320312 C 42.996094 35.359375 42.78125 35.730469 42.78125 35.730469 C 42.78125 35.730469 42.769531 35.96875 42.785156 36.042969 C 42.796875 36.117188 42.941406 36.265625 42.96875 36.269531 C 43.109375 36.285156 43.417969 36.175781 43.484375 36.117188 C 43.550781 36.054688 43.652344 35.773438 43.664062 35.691406 C 43.664062 35.691406 43.640625 35.667969 43.617188 35.664062 C 43.597656 35.65625 43.644531 35.296875 43.605469 35.277344 C 43.570312 35.261719 43.566406 35.269531 43.492188 35.328125 C 43.492188 35.332031 43.488281 35.332031 43.484375 35.335938 C 43.484375 35.335938 43.453125 35.273438 43.378906 35.269531 L 43.179688 35.445312 L 43.179688 35.347656 C 43.179688 35.347656 43.214844 35.277344 43.144531 35.253906 " fill-opacity="1" fill-rule="nonzero"/><path fill="#f68c82" d="M 45.183594 30.007812 C 45.183594 30.007812 45.296875 29.339844 45.722656 29.035156 C 45.722656 29.035156 45.238281 29.363281 45.144531 30.007812 L 45.183594 30.007812 " fill-opacity="1" fill-rule="nonzero"/><path fill="#2e3192" d="M 28.414062 33.152344 C 28.414062 33.152344 28.214844 33.351562 28.332031 33.597656 C 28.449219 33.84375 28.511719 33.847656 28.414062 34 C 28.320312 34.148438 28.417969 34.1875 28.597656 34.285156 C 28.777344 34.386719 28.757812 34.5625 28.75 34.714844 C 28.738281 34.867188 29.261719 34.550781 29.261719 34.550781 C 29.261719 34.550781 29.375 34.128906 29.394531 34.121094 C 29.414062 34.113281 29.570312 33.867188 29.542969 33.800781 C 29.515625 33.734375 29.335938 33.363281 29.203125 33.25 C 29.070312 33.136719 28.8125 32.917969 28.75 32.90625 C 28.683594 32.894531 28.414062 33.152344 28.414062 33.152344 " fill-opacity="1" fill-rule="nonzero"/><path fill="#c3683d" d="M 30.074219 39.585938 L 30.667969 40.320312 L 34.246094 41.894531 L 34.011719 42.703125 L 32.835938 43.082031 L 29.019531 41.992188 L 28.484375 39.78125 L 30.074219 39.585938 " fill-opacity="1" fill-rule="nonzero"/><path fill="#c3683d" d="M 33.851562 42.011719 L 34.246094 41.894531 L 34.902344 46.894531 L 34.246094 47.253906 L 33.476562 47.1875 L 32.835938 43.082031 L 33.851562 42.011719 " fill-opacity="1" fill-rule="nonzero"/><path fill="#f6844f" d="M 28.566406 40.039062 L 30.796875 43.890625 L 30.167969 44.492188 L 28.804688 44.46875 L 27.410156 41.773438 L 27.242188 40.15625 L 28.566406 40.039062 " fill-opacity="1" fill-rule="nonzero"/><path fill="#f6844f" d="M 30.535156 43.820312 L 30.796875 43.890625 L 28.078125 48.496094 C 28.078125 48.496094 27.113281 48.425781 27.007812 48.425781 C 26.898438 48.425781 26.742188 48.027344 26.742188 48.027344 L 28.621094 44.117188 L 30.535156 43.820312 " fill-opacity="1" fill-rule="nonzero"/><g clip-path="url(#8c168955cf)"><path fill="#f6844f" d="M 28.019531 48.074219 L 27.890625 48.832031 C 27.890625 48.832031 28.058594 49.253906 28.199219 49.574219 C 28.25 49.695312 28.25 49.695312 28.25 49.695312 L 28.210938 49.847656 C 28.210938 49.847656 26.816406 49.980469 26.753906 49.972656 C 26.6875 49.964844 26.234375 49.75 26.234375 49.75 L 26.621094 48.839844 L 27.085938 47.820312 L 28.007812 48.035156 " fill-opacity="1" fill-rule="nonzero"/></g><path fill="#c3683d" d="M 33.761719 47.007812 L 33.867188 48.375 C 33.867188 48.375 34.578125 48.40625 34.574219 48.421875 C 34.570312 48.433594 35.902344 48.675781 35.902344 48.675781 L 36.796875 48.566406 L 36.832031 48.292969 L 35.148438 47.441406 L 34.789062 46.816406 L 33.761719 47.007812 " fill-opacity="1" fill-rule="nonzero"/><path fill="#f7981a" d="M 32.167969 37.519531 L 33.070312 38.15625 L 33.46875 38.546875 L 33.28125 39.105469 L 32.683594 39.058594 L 31.777344 38.386719 L 32.167969 37.519531 " fill-opacity="1" fill-rule="nonzero"/><path fill="#f7981a" d="M 30.707031 35.015625 L 30.832031 34.984375 L 32.378906 37.957031 L 31.796875 38.414062 L 31.066406 37.46875 L 30.28125 36.457031 L 30.707031 35.015625 " fill-opacity="1" fill-rule="nonzero"/><path fill="#fab43d" d="M 30.140625 34.832031 L 30.1875 34.769531 L 30.832031 34.984375 C 30.832031 34.984375 30.589844 36.335938 30.601562 36.300781 C 30.613281 36.265625 29.914062 37.863281 29.914062 37.863281 L 30.226562 39.753906 C 30.226562 39.753906 28.84375 40.636719 27.117188 40.390625 C 27.117188 40.390625 27.117188 37.824219 27.117188 37.414062 C 27.117188 37.003906 27.242188 35.671875 27.242188 35.671875 C 27.242188 35.671875 27.835938 34.828125 27.976562 34.613281 L 29.375 35.4375 L 30.140625 34.832031 " fill-opacity="1" fill-rule="nonzero"/><path fill="#24265d" d="M 28.890625 41.761719 C 29.078125 41.410156 29.316406 41.402344 29.472656 41.398438 C 29.625 41.390625 30.066406 41.511719 30.535156 41.089844 C 31.003906 40.664062 30.769531 39.84375 30.769531 39.84375 L 30.65625 39.5 L 30.519531 39.167969 C 30.519531 39.167969 30.171875 38.390625 29.539062 38.371094 C 28.90625 38.355469 28.652344 38.734375 28.53125 38.828125 C 28.40625 38.925781 28.222656 39.074219 27.851562 38.929688 C 27.484375 38.785156 26.914062 38.621094 26.21875 38.960938 C 25.519531 39.300781 25.472656 40.492188 25.765625 41.308594 C 26.070312 42.121094 26.875 42.996094 27.625 42.800781 C 28.375 42.605469 28.703125 42.109375 28.890625 41.761719 " fill-opacity="1" fill-rule="nonzero"/><path fill="#24265d" d="M 29.832031 40.164062 L 29.601562 39.535156 L 34.457031 37.792969 L 34.652344 38.328125 L 29.832031 40.164062 " fill-opacity="1" fill-rule="nonzero"/><path fill="#4e5152" d="M 29.355469 40.582031 C 29.0625 40.691406 28.742188 40.539062 28.632812 40.25 C 28.527344 39.957031 28.675781 39.632812 28.96875 39.527344 C 29.257812 39.417969 29.582031 39.566406 29.6875 39.859375 C 29.796875 40.152344 29.644531 40.476562 29.355469 40.582031 " fill-opacity="1" fill-rule="nonzero"/><path stroke-linecap="butt" transform="matrix(0.00148818, 0, 0, -0.00149321, 21.803723, 53.454467)" fill="none" stroke-linejoin="miter" d="M 3798.816977 8115.743251 L 3515.332374 8884.848409 L 3646.575246 8931.93648 L 3930.059849 8162.831322 Z M 3798.816977 8115.743251 " stroke="#4e5152" stroke-width="22.966999" stroke-opacity="1" stroke-miterlimit="10"/><path fill="#4e5152" d="M 27.410156 41.09375 L 27.15625 40.402344 L 27.273438 40.359375 L 27.527344 41.050781 L 27.410156 41.09375 " fill-opacity="1" fill-rule="nonzero"/><path fill="#24265d" d="M 36.382812 37.539062 L 36.285156 37.269531 C 36.285156 37.269531 35.976562 37.277344 35.800781 37.042969 L 34.757812 37.429688 C 34.757812 37.429688 34.484375 37.527344 34.433594 37.824219 C 34.378906 38.121094 34.523438 38.074219 34.523438 38.074219 C 34.523438 38.074219 34.382812 38.132812 34.613281 38.320312 C 34.847656 38.511719 35.121094 38.410156 35.121094 38.410156 L 36.164062 38.023438 C 36.144531 37.730469 36.382812 37.539062 36.382812 37.539062 " fill-opacity="1" fill-rule="nonzero"/><path fill="#4e5152" d="M 35.144531 38.269531 C 35.070312 38.296875 34.988281 38.257812 34.960938 38.183594 C 34.933594 38.109375 34.972656 38.023438 35.046875 37.996094 L 35.824219 37.710938 C 35.898438 37.683594 35.980469 37.722656 36.007812 37.796875 C 36.035156 37.871094 35.996094 37.953125 35.921875 37.980469 L 35.144531 38.269531 " fill-opacity="1" fill-rule="nonzero"/><path fill="#4e5152" d="M 34.96875 37.789062 C 34.894531 37.816406 34.8125 37.777344 34.785156 37.703125 C 34.757812 37.628906 34.796875 37.546875 34.871094 37.519531 L 35.648438 37.230469 C 35.722656 37.203125 35.804688 37.242188 35.832031 37.316406 C 35.859375 37.390625 35.820312 37.472656 35.746094 37.5 L 34.96875 37.789062 " fill-opacity="1" fill-rule="nonzero"/><path fill="#24265d" d="M 36.011719 38.195312 C 36 38.199219 35.980469 38.191406 35.976562 38.175781 L 35.941406 38.078125 C 35.933594 38.0625 35.941406 38.046875 35.957031 38.042969 C 35.972656 38.035156 35.988281 38.042969 35.992188 38.058594 L 36.03125 38.15625 C 36.035156 38.171875 36.027344 38.1875 36.011719 38.195312 " fill-opacity="1" fill-rule="nonzero"/><path fill="#24265d" d="M 35.996094 38.242188 C 35.96875 38.25 35.941406 38.238281 35.929688 38.210938 C 35.921875 38.183594 35.933594 38.15625 35.960938 38.144531 L 36.023438 38.125 C 36.046875 38.113281 36.078125 38.125 36.085938 38.152344 C 36.097656 38.179688 36.082031 38.207031 36.058594 38.21875 L 35.996094 38.242188 " fill-opacity="1" fill-rule="nonzero"/><path fill="#24265d" d="M 35.703125 38.308594 C 35.6875 38.3125 35.671875 38.304688 35.667969 38.292969 L 35.628906 38.191406 C 35.625 38.179688 35.632812 38.164062 35.648438 38.15625 C 35.660156 38.152344 35.675781 38.160156 35.683594 38.171875 L 35.71875 38.273438 C 35.722656 38.285156 35.71875 38.304688 35.703125 38.308594 " fill-opacity="1" fill-rule="nonzero"/><path fill="#24265d" d="M 35.683594 38.355469 C 35.660156 38.367188 35.628906 38.351562 35.621094 38.324219 C 35.609375 38.300781 35.625 38.269531 35.648438 38.261719 L 35.710938 38.238281 C 35.738281 38.226562 35.765625 38.242188 35.777344 38.269531 C 35.785156 38.292969 35.773438 38.324219 35.746094 38.332031 L 35.683594 38.355469 " fill-opacity="1" fill-rule="nonzero"/><path fill="#24265d" d="M 35.390625 38.421875 C 35.375 38.429688 35.359375 38.421875 35.355469 38.40625 L 35.320312 38.308594 C 35.3125 38.292969 35.320312 38.277344 35.335938 38.273438 C 35.351562 38.265625 35.367188 38.273438 35.371094 38.289062 L 35.40625 38.386719 C 35.414062 38.402344 35.40625 38.417969 35.390625 38.421875 " fill-opacity="1" fill-rule="nonzero"/><path fill="#24265d" d="M 35.375 38.46875 C 35.347656 38.480469 35.316406 38.46875 35.308594 38.441406 C 35.300781 38.414062 35.3125 38.386719 35.339844 38.375 L 35.402344 38.351562 C 35.425781 38.34375 35.457031 38.355469 35.464844 38.382812 C 35.476562 38.410156 35.460938 38.4375 35.4375 38.449219 L 35.375 38.46875 " fill-opacity="1" fill-rule="nonzero"/><path fill="#24265d" d="M 35.550781 37.015625 C 35.535156 37.019531 35.527344 37.035156 35.535156 37.050781 L 35.570312 37.148438 C 35.574219 37.164062 35.589844 37.171875 35.605469 37.167969 C 35.621094 37.160156 35.628906 37.144531 35.621094 37.128906 L 35.585938 37.03125 C 35.582031 37.015625 35.566406 37.011719 35.550781 37.015625 " fill-opacity="1" fill-rule="nonzero"/><path fill="#24265d" d="M 35.507812 36.992188 C 35.480469 37 35.464844 37.03125 35.476562 37.054688 C 35.484375 37.082031 35.515625 37.09375 35.542969 37.085938 L 35.601562 37.0625 C 35.628906 37.054688 35.644531 37.023438 35.632812 36.996094 C 35.625 36.972656 35.59375 36.957031 35.570312 36.96875 L 35.507812 36.992188 " fill-opacity="1" fill-rule="nonzero"/><path fill="#24265d" d="M 35.238281 37.128906 C 35.226562 37.136719 35.21875 37.152344 35.222656 37.167969 L 35.257812 37.265625 C 35.265625 37.28125 35.28125 37.285156 35.296875 37.28125 C 35.308594 37.277344 35.316406 37.261719 35.3125 37.246094 L 35.277344 37.148438 C 35.269531 37.132812 35.253906 37.125 35.238281 37.128906 " fill-opacity="1" fill-rule="nonzero"/><path fill="#24265d" d="M 35.195312 37.105469 C 35.167969 37.117188 35.15625 37.144531 35.164062 37.171875 C 35.175781 37.195312 35.203125 37.210938 35.230469 37.199219 L 35.292969 37.175781 C 35.320312 37.167969 35.332031 37.140625 35.324219 37.113281 C 35.3125 37.085938 35.285156 37.074219 35.257812 37.082031 L 35.195312 37.105469 " fill-opacity="1" fill-rule="nonzero"/><path fill="#24265d" d="M 34.929688 37.246094 C 34.914062 37.25 34.90625 37.265625 34.914062 37.28125 L 34.949219 37.378906 C 34.953125 37.394531 34.96875 37.402344 34.984375 37.394531 C 35 37.390625 35.007812 37.375 35 37.359375 L 34.964844 37.261719 C 34.960938 37.246094 34.945312 37.238281 34.929688 37.246094 " fill-opacity="1" fill-rule="nonzero"/><path fill="#24265d" d="M 34.882812 37.21875 C 34.859375 37.230469 34.84375 37.257812 34.855469 37.285156 C 34.863281 37.3125 34.894531 37.324219 34.917969 37.316406 L 34.980469 37.292969 C 35.007812 37.28125 35.019531 37.253906 35.011719 37.226562 C 35.003906 37.199219 34.972656 37.1875 34.945312 37.199219 L 34.882812 37.21875 " fill-opacity="1" fill-rule="nonzero"/><path stroke-linecap="butt" transform="matrix(0.00148818, 0, 0, -0.00149321, 21.803723, 53.454467)" fill="none" stroke-linejoin="miter" d="M 8586.556936 10148.378313 L 3864.438413 8338.103586 " stroke="#4e5152" stroke-width="22.966999" stroke-opacity="1" stroke-miterlimit="10"/><path stroke-linecap="butt" transform="matrix(0.00148818, 0, 0, -0.00149321, 21.803723, 53.454467)" fill="none" stroke-linejoin="miter" d="M 8565.558076 10200.698392 L 3832.940123 8427.04772 " stroke="#4e5152" stroke-width="22.966999" stroke-opacity="1" stroke-miterlimit="10"/><path stroke-linecap="butt" transform="matrix(0.00148818, 0, 0, -0.00149321, 21.803723, 53.454467)" fill="none" stroke-linejoin="miter" d="M 8541.934359 10266.09849 L 3798.816977 8513.37585 " stroke="#4e5152" stroke-width="22.966999" stroke-opacity="1" stroke-miterlimit="10"/><path stroke-linecap="butt" transform="matrix(0.00148818, 0, 0, -0.00149321, 21.803723, 53.454467)" fill="none" stroke-linejoin="miter" d="M 8473.688066 10449.218766 L 3706.946967 8764.512228 " stroke="#4e5152" stroke-width="22.966999" stroke-opacity="1" stroke-miterlimit="10"/><path stroke-linecap="butt" transform="matrix(0.00148818, 0, 0, -0.00149321, 21.803723, 53.454467)" fill="none" stroke-linejoin="miter" d="M 8494.686925 10396.898688 L 3741.070113 8675.568094 " stroke="#4e5152" stroke-width="22.966999" stroke-opacity="1" stroke-miterlimit="10"/><path stroke-linecap="butt" transform="matrix(0.00148818, 0, 0, -0.00149321, 21.803723, 53.454467)" fill="none" stroke-linejoin="miter" d="M 8518.310642 10331.498589 L 3772.568403 8589.239964 " stroke="#4e5152" stroke-width="22.966999" stroke-opacity="1" stroke-miterlimit="10"/><path fill="#24265d" d="M 34.601562 38.390625 L 34.375 37.78125 L 34.445312 37.753906 L 34.667969 38.367188 L 34.601562 38.390625 " fill-opacity="1" fill-rule="nonzero"/><path fill="#e66f64" d="M 29.652344 34.058594 C 29.652344 34.058594 29.628906 34.296875 29.652344 34.597656 L 30.167969 34.796875 L 29.699219 35.921875 L 28.148438 34.710938 L 28.769531 34.464844 L 28.839844 33.867188 L 29.652344 34.058594 " fill-opacity="1" fill-rule="nonzero"/><path fill="#f68c82" d="M 30.488281 32.652344 C 30.59375 32.832031 30.671875 33.078125 30.492188 33.609375 C 30.386719 33.90625 30.34375 34.007812 30.183594 34.171875 C 30.121094 34.238281 29.789062 34.609375 29.734375 34.613281 C 29.679688 34.613281 28.917969 34.277344 28.847656 33.859375 C 28.847656 33.859375 28.644531 32.824219 29.058594 32.46875 C 29.496094 32.09375 30.273438 32.273438 30.488281 32.652344 " fill-opacity="1" fill-rule="nonzero"/><path fill="#f68c82" d="M 30.585938 33.234375 C 30.492188 33.8125 29.945312 34.203125 29.371094 34.109375 C 28.792969 34.011719 28.402344 33.464844 28.5 32.886719 C 28.59375 32.308594 29.136719 31.917969 29.714844 32.011719 C 30.292969 32.109375 30.679688 32.65625 30.585938 33.234375 " fill-opacity="1" fill-rule="nonzero"/><path fill="#2e3192" d="M 30.34375 33.058594 C 30.34375 33.058594 30.164062 32.945312 30.0625 33.058594 C 29.960938 33.175781 30.003906 33.433594 29.980469 33.53125 C 29.957031 33.625 29.664062 33.601562 29.597656 33.800781 C 29.597656 33.800781 29.550781 33.621094 29.628906 33.507812 C 29.703125 33.394531 29.679688 33.285156 29.699219 33.148438 C 29.699219 33.148438 29.699219 33.453125 29.472656 33.488281 C 29.246094 33.523438 29.160156 33.511719 29.089844 33.632812 C 29.019531 33.753906 28.921875 33.464844 28.628906 33.40625 L 28.382812 33.339844 C 28.382812 33.339844 28.425781 33.320312 28.382812 33.085938 C 28.34375 32.851562 28.277344 32.769531 28.421875 32.632812 C 28.5625 32.492188 28.585938 32.320312 28.683594 32.121094 C 28.777344 31.925781 28.9375 31.816406 29.15625 31.886719 C 29.375 31.960938 29.601562 31.707031 29.847656 31.71875 C 30.09375 31.730469 30.152344 32.007812 30.25 32.1875 C 30.25 32.1875 30.398438 32.09375 30.476562 32.207031 C 30.554688 32.320312 30.5 32.414062 30.597656 32.578125 C 30.695312 32.738281 30.816406 32.925781 30.75 33.019531 C 30.683594 33.117188 30.59375 33.191406 30.585938 33.234375 C 30.578125 33.273438 30.648438 32.902344 30.34375 33.058594 " fill-opacity="1" fill-rule="nonzero"/><path fill="#f68c82" d="M 28.859375 33.902344 C 28.859375 33.902344 28.574219 33.742188 28.597656 33.414062 C 28.652344 32.761719 28.886719 33.535156 28.886719 33.535156 C 28.886719 33.535156 28.929688 33.671875 28.859375 33.902344 " fill-opacity="1" fill-rule="nonzero"/><path fill="#fab43d" d="M 27.910156 34.714844 L 26.664062 35.167969 L 25.238281 38.472656 L 26.117188 38.976562 L 27.320312 36.71875 L 27.234375 36.566406 L 27.910156 34.714844 " fill-opacity="1" fill-rule="nonzero"/><path fill="#f68c82" d="M 28.054688 40.042969 L 28.578125 40.019531 L 28.886719 40.132812 L 29.054688 40.128906 L 28.957031 40.238281 L 28.835938 40.253906 L 28.988281 40.339844 L 29.378906 40.222656 L 29.519531 40.269531 L 29.292969 40.429688 L 29.289062 40.515625 L 28.988281 40.757812 L 28.921875 40.878906 L 28.417969 41.003906 L 27.730469 40.40625 L 28.054688 40.042969 " fill-opacity="1" fill-rule="nonzero"/><path fill="#fab43d" d="M 26.164062 37.976562 L 25.238281 38.472656 L 27.863281 40.566406 L 28.324219 39.90625 L 26.164062 37.976562 " fill-opacity="1" fill-rule="nonzero"/><path fill="#e66f64" d="M 33.183594 38.441406 C 33.183594 38.441406 33.273438 38.296875 33.320312 38.265625 C 33.367188 38.234375 33.484375 38.195312 33.519531 38.191406 C 33.554688 38.1875 33.570312 38.277344 33.570312 38.277344 C 33.570312 38.277344 33.449219 38.394531 33.433594 38.425781 C 33.417969 38.453125 33.363281 38.566406 33.363281 38.566406 L 33.183594 38.441406 " fill-opacity="1" fill-rule="nonzero"/><path fill="#f68c82" d="M 32.976562 38.082031 C 32.976562 38.082031 33.070312 38.097656 33.105469 38.132812 C 33.136719 38.167969 33.386719 38.519531 33.386719 38.519531 C 33.386719 38.519531 33.425781 38.753906 33.417969 38.828125 C 33.414062 38.902344 33.285156 39.066406 33.257812 39.070312 C 33.117188 39.101562 32.800781 39.027344 32.730469 38.976562 C 32.65625 38.921875 32.527344 38.648438 32.507812 38.570312 C 32.507812 38.570312 32.527344 38.546875 32.550781 38.539062 C 32.570312 38.527344 32.484375 38.179688 32.519531 38.152344 C 32.554688 38.132812 32.5625 38.140625 32.636719 38.191406 C 32.640625 38.195312 32.644531 38.195312 32.648438 38.199219 C 32.648438 38.199219 32.671875 38.132812 32.746094 38.121094 L 32.960938 38.273438 L 32.953125 38.175781 C 32.953125 38.175781 32.910156 38.113281 32.976562 38.082031 " fill-opacity="1" fill-rule="nonzero"/><path fill="#2e3192" d="M 30.332031 33.011719 C 30.332031 33.011719 30.574219 33.113281 30.433594 33.535156 C 30.433594 33.535156 30.335938 33.785156 30.566406 33.867188 C 30.566406 33.867188 30.453125 33.667969 30.5625 33.558594 C 30.671875 33.453125 30.855469 33.09375 30.5625 32.964844 C 30.273438 32.835938 30.351562 32.953125 30.332031 33.011719 " fill-opacity="1" fill-rule="nonzero"/></svg>