<svg xmlns="http://www.w3.org/2000/svg" xmlns:xlink="http://www.w3.org/1999/xlink" width="100" zoomAndPan="magnify" viewBox="0 0 75 74.999997" height="100" preserveAspectRatio="xMidYMid meet" version="1.0"><defs><clipPath id="5b9d4ba6ce"><path d="M 51 35 L 52.5 35 L 52.5 37 L 51 37 Z M 51 35 " clip-rule="nonzero"/></clipPath><clipPath id="7900da2c4c"><path d="M 52 35 L 52.5 35 L 52.5 36 L 52 36 Z M 52 35 " clip-rule="nonzero"/></clipPath><clipPath id="442fe31826"><path d="M 52 35 L 52.5 35 L 52.5 37 L 52 37 Z M 52 35 " clip-rule="nonzero"/></clipPath><clipPath id="1019d2a3f2"><path d="M 51 35 L 52.5 35 L 52.5 36 L 51 36 Z M 51 35 " clip-rule="nonzero"/></clipPath><clipPath id="b4afdb69ee"><path d="M 51 36 L 52.5 36 L 52.5 37 L 51 37 Z M 51 36 " clip-rule="nonzero"/></clipPath><clipPath id="bdcb3f369e"><path d="M 52 35 L 52.5 35 L 52.5 36 L 52 36 Z M 52 35 " clip-rule="nonzero"/></clipPath><clipPath id="02c2387628"><path d="M 51 35 L 52.5 35 L 52.5 36 L 51 36 Z M 51 35 " clip-rule="nonzero"/></clipPath><clipPath id="36e2f47676"><path d="M 27 45 L 44 45 L 44 52.292969 L 27 52.292969 Z M 27 45 " clip-rule="nonzero"/></clipPath><clipPath id="8107c7fa0e"><path d="M 37 48 L 43 48 L 43 52.292969 L 37 52.292969 Z M 37 48 " clip-rule="nonzero"/></clipPath><clipPath id="51dd6af06b"><path d="M 22.5 44 L 41 44 L 41 52.292969 L 22.5 52.292969 Z M 22.5 44 " clip-rule="nonzero"/></clipPath><clipPath id="a2b02ba7ce"><path d="M 22.5 31 L 29 31 L 29 50 L 22.5 50 Z M 22.5 31 " clip-rule="nonzero"/></clipPath><clipPath id="723a408fb5"><path d="M 23 39 L 36 39 L 36 52.292969 L 23 52.292969 Z M 23 39 " clip-rule="nonzero"/></clipPath><clipPath id="4152ebfedd"><path d="M 27 41 L 36 41 L 36 52.292969 L 27 52.292969 Z M 27 41 " clip-rule="nonzero"/></clipPath><clipPath id="65da7ef31e"><path d="M 22.5 31 L 26 31 L 26 41 L 22.5 41 Z M 22.5 31 " clip-rule="nonzero"/></clipPath><clipPath id="c8327a86cd"><path d="M 22.5 42 L 28 42 L 28 49 L 22.5 49 Z M 22.5 42 " clip-rule="nonzero"/></clipPath><clipPath id="496dbefaf3"><path d="M 27 23.042969 L 34 23.042969 L 34 29 L 27 29 Z M 27 23.042969 " clip-rule="nonzero"/></clipPath></defs><path fill="#26285d" d="M 43.109375 36.664062 C 43.109375 36.664062 42.695312 37.746094 41.730469 38.921875 C 41.730469 38.921875 41.417969 38.746094 41.460938 38.070312 C 41.503906 37.398438 42.65625 36.777344 42.683594 36.75 C 42.707031 36.722656 43.109375 36.664062 43.109375 36.664062 " fill-opacity="1" fill-rule="nonzero"/><path fill="#e66f64" d="M 42.273438 33.644531 C 42.265625 33.628906 42.773438 33.660156 42.773438 33.660156 C 42.773438 33.660156 42.734375 33.984375 42.78125 34.085938 C 42.78125 34.085938 42.671875 34.117188 42.550781 34.125 L 42.527344 34.132812 L 42.503906 34.125 C 42.417969 34.125 42.335938 34.113281 42.285156 34.070312 C 42.285156 34.070312 42.355469 33.867188 42.273438 33.644531 " fill-opacity="1" fill-rule="nonzero"/><path fill="#ffffff" d="M 42.597656 34.199219 L 42.285156 34.09375 L 42.253906 33.84375 L 42.597656 33.949219 L 42.863281 33.824219 L 42.847656 34.070312 L 42.597656 34.199219 " fill-opacity="1" fill-rule="nonzero"/><path fill="#2e3192" d="M 41.90625 33.585938 C 41.90625 33.585938 42.082031 33.6875 41.886719 33.203125 L 42.265625 33.75 C 42.265625 33.75 42.035156 33.859375 41.90625 33.585938 " fill-opacity="1" fill-rule="nonzero"/><path fill="#2e3192" d="M 42.175781 36.265625 C 42.175781 36.265625 40.878906 37.578125 40.386719 38.457031 C 39.890625 39.335938 41.917969 38.125 41.917969 38.125 L 42.175781 36.265625 " fill-opacity="1" fill-rule="nonzero"/><path fill="#ffffff" d="M 41.675781 34.261719 L 42.050781 34.101562 C 42.050781 34.101562 42.050781 34.105469 42.054688 34.117188 C 42.191406 34.0625 42.378906 34.023438 42.503906 34.011719 C 42.503906 34.011719 42.730469 34.011719 42.886719 34.039062 C 42.921875 34.082031 42.980469 34.109375 43.050781 34.109375 C 43.0625 34.109375 43.074219 34.105469 43.085938 34.105469 L 43.441406 34.25 C 43.441406 34.25 43.449219 36.300781 43.441406 36.496094 C 43.207031 36.515625 42.714844 36.660156 42.480469 36.664062 C 42.359375 36.667969 42.113281 36.644531 41.878906 36.566406 C 41.804688 36.296875 41.597656 34.722656 41.675781 34.261719 " fill-opacity="1" fill-rule="nonzero"/><path fill="#2e3192" d="M 42.945312 34.0625 C 42.945312 34.0625 43.234375 34.882812 43.515625 35.171875 C 43.515625 35.171875 45.109375 36.644531 45.089844 36.066406 C 45.089844 36.066406 45.121094 35.847656 45.117188 35.828125 C 45.054688 35.542969 44.292969 34.480469 43.789062 34.875 C 43.550781 35.058594 43.101562 35.054688 43.09375 34.84375 L 42.945312 34.0625 " fill-opacity="1" fill-rule="nonzero"/><path fill="#ffffff" d="M 45.03125 35.894531 C 45 36.015625 45.015625 36.085938 45.097656 36.132812 C 45.089844 36.144531 45.082031 36.152344 45.070312 36.164062 C 45.0625 36.171875 45.050781 36.179688 45.039062 36.1875 C 45.007812 36.1875 44.972656 36.191406 44.945312 36.152344 C 44.933594 36.128906 44.917969 36.085938 44.917969 36.082031 C 44.910156 36.03125 44.898438 36.035156 44.894531 35.984375 C 44.894531 35.976562 44.898438 35.90625 44.898438 35.902344 C 44.90625 35.878906 44.910156 35.851562 44.921875 35.828125 C 44.921875 35.824219 44.9375 35.820312 44.9375 35.816406 C 44.9375 35.816406 44.9375 35.816406 44.9375 35.8125 C 45.050781 35.761719 45.074219 35.777344 45.097656 35.78125 C 45.09375 35.796875 45.035156 35.878906 45.03125 35.894531 " fill-opacity="1" fill-rule="nonzero"/><path fill="#26285d" d="M 42.339844 41.710938 C 42.339844 41.710938 42.296875 41.730469 42.296875 41.742188 C 42.292969 41.757812 42.261719 41.941406 42.269531 41.972656 C 42.277344 42.007812 42.832031 42.109375 42.832031 42.109375 C 42.832031 42.109375 43.113281 42.117188 43.144531 42.082031 C 43.179688 42.046875 43.167969 42.019531 43.152344 42.011719 C 43.132812 42.007812 42.5 41.707031 42.5 41.707031 L 42.339844 41.710938 " fill-opacity="1" fill-rule="nonzero"/><path fill="#26285d" d="M 41.878906 41.796875 C 41.878906 41.796875 41.8125 41.824219 41.785156 41.824219 C 41.753906 41.824219 41.691406 41.796875 41.691406 41.796875 C 41.691406 41.796875 41.808594 41.738281 41.613281 41.785156 C 41.613281 41.785156 41.066406 42.089844 41.070312 42.113281 C 41.074219 42.132812 41.191406 42.203125 41.519531 42.160156 C 41.519531 42.160156 41.8125 42.078125 41.867188 42.03125 C 41.875 42.027344 41.921875 41.824219 41.878906 41.796875 " fill-opacity="1" fill-rule="nonzero"/><path fill="#f68c82" d="M 41.714844 41.539062 C 41.714844 41.539062 41.6875 41.820312 41.6875 41.828125 C 41.699219 41.871094 41.820312 41.882812 41.855469 41.851562 L 41.945312 41.585938 L 41.714844 41.539062 " fill-opacity="1" fill-rule="nonzero"/><path fill="#f68c82" d="M 42.34375 41.476562 C 42.34375 41.476562 42.320312 41.757812 42.320312 41.765625 C 42.332031 41.808594 42.445312 41.824219 42.484375 41.796875 L 42.554688 41.515625 L 42.34375 41.476562 " fill-opacity="1" fill-rule="nonzero"/><path fill="#26285d" d="M 43.445312 36.453125 C 43.445312 36.453125 43.214844 38.496094 43.046875 39.445312 C 43.046875 39.445312 42.546875 39.328125 42.507812 39.101562 C 42.472656 38.878906 42.738281 36.519531 42.738281 36.519531 L 43.445312 36.453125 " fill-opacity="1" fill-rule="nonzero"/><path fill="#26285d" d="M 43.089844 34.332031 L 43.230469 36.765625 L 43.433594 36.558594 L 43.570312 34.785156 L 43.089844 34.332031 " fill-opacity="1" fill-rule="nonzero"/><path fill="#2e3192" d="M 42.601562 36.441406 C 43.261719 36.421875 43.351562 36.476562 43.351562 36.585938 C 43.347656 36.984375 42.691406 38.0625 42.691406 38.078125 C 42.328125 39.773438 42.054688 41.320312 41.9375 41.675781 C 41.890625 41.820312 41.644531 41.660156 41.644531 41.660156 C 41.730469 39.707031 41.910156 36.59375 41.910156 36.59375 C 42.113281 36.476562 42.328125 36.46875 42.601562 36.441406 " fill-opacity="1" fill-rule="nonzero"/><path fill="#26285d" d="M 42.671875 39 C 42.671875 39 42.539062 38.964844 42.511719 39.039062 C 42.488281 39.109375 42.339844 41.117188 42.300781 41.636719 C 42.300781 41.636719 42.480469 41.746094 42.550781 41.652344 C 42.65625 41.515625 43.046875 39.445312 43.046875 39.445312 L 42.671875 39 " fill-opacity="1" fill-rule="nonzero"/><path fill="#2e3192" d="M 42.113281 34.539062 L 42.074219 34.03125 L 42.148438 33.980469 L 42.046875 33.761719 L 42.28125 33.882812 L 42.285156 33.882812 L 42.578125 34.121094 L 42.503906 34.253906 C 42.570312 34.394531 42.832031 35.082031 42.519531 36.390625 L 42.527344 36.691406 L 41.855469 36.636719 L 41.550781 34.875 L 42.113281 34.539062 " fill-opacity="1" fill-rule="nonzero"/><path fill="#2e3192" d="M 42.011719 33.917969 C 42.011719 33.917969 41.46875 33.988281 40.769531 35.3125 C 40.769531 35.3125 40.65625 35.972656 40.832031 35.804688 C 41.003906 35.632812 41.703125 35.308594 42.269531 34.644531 C 42.269531 34.644531 42.484375 34.261719 42.011719 33.917969 " fill-opacity="1" fill-rule="nonzero"/><path fill="#2e3192" d="M 42.863281 32.636719 L 43.007812 32.667969 C 43.007812 32.667969 43.210938 32.871094 43.027344 33.222656 L 42.863281 32.636719 " fill-opacity="1" fill-rule="nonzero"/><path fill="#f7981a" d="M 42.699219 33.886719 C 42.964844 33.445312 43.457031 33.496094 43.710938 33.726562 C 43.722656 33.734375 43.742188 33.75 43.761719 33.777344 C 43.765625 33.78125 43.769531 33.785156 43.773438 33.792969 C 43.972656 34.039062 44.03125 34.09375 44.03125 34.09375 C 43.90625 34.074219 43.957031 34.210938 43.976562 34.253906 C 44.007812 34.308594 44.050781 34.351562 44.125 34.382812 C 44.164062 34.398438 44.210938 34.390625 44.203125 34.292969 C 44.203125 34.292969 44.238281 34.375 44.515625 34.519531 C 44.519531 34.519531 44.523438 34.523438 44.527344 34.523438 C 44.597656 34.558594 44.660156 34.59375 44.699219 34.636719 C 44.757812 34.707031 44.933594 34.972656 44.632812 35.378906 C 44.523438 35.527344 44.320312 35.589844 44.320312 35.589844 C 44.054688 35.625 43.890625 35.574219 43.722656 35.269531 C 43.605469 35.167969 43.550781 35.160156 43.550781 35.160156 C 43.621094 35.148438 43.636719 35.121094 43.632812 35.09375 C 43.574219 34.992188 43.484375 34.957031 43.382812 34.9375 C 43.335938 34.941406 43.292969 34.964844 43.324219 35.039062 C 43.324219 35.039062 43.257812 34.996094 42.96875 34.875 C 42.917969 34.855469 42.890625 34.839844 42.875 34.824219 C 42.542969 34.640625 42.496094 34.21875 42.699219 33.886719 " fill-opacity="1" fill-rule="nonzero"/><path fill="#26285d" d="M 45.734375 36.558594 C 45.703125 36.558594 45.683594 36.535156 45.683594 36.503906 C 45.683594 36.476562 45.707031 36.453125 45.734375 36.457031 C 45.765625 36.457031 45.785156 36.480469 45.785156 36.507812 C 45.785156 36.535156 45.761719 36.558594 45.734375 36.558594 " fill-opacity="1" fill-rule="nonzero"/><path fill="#26285d" d="M 46.023438 36.167969 C 45.996094 36.167969 45.976562 36.144531 45.976562 36.117188 C 45.976562 36.089844 46 36.066406 46.027344 36.066406 C 46.054688 36.066406 46.078125 36.089844 46.078125 36.121094 C 46.078125 36.148438 46.054688 36.171875 46.023438 36.167969 " fill-opacity="1" fill-rule="nonzero"/><path fill="#26285d" d="M 46.136719 36.292969 C 46.105469 36.289062 46.085938 36.265625 46.085938 36.238281 C 46.085938 36.210938 46.109375 36.1875 46.136719 36.1875 C 46.167969 36.191406 46.1875 36.214844 46.1875 36.242188 C 46.1875 36.269531 46.164062 36.292969 46.136719 36.292969 " fill-opacity="1" fill-rule="nonzero"/><path fill="#26285d" d="M 45.875 36.636719 C 45.847656 36.632812 45.824219 36.609375 45.828125 36.582031 C 45.828125 36.554688 45.851562 36.53125 45.878906 36.53125 C 45.90625 36.535156 45.929688 36.558594 45.925781 36.585938 C 45.925781 36.613281 45.902344 36.636719 45.875 36.636719 " fill-opacity="1" fill-rule="nonzero"/><path fill="#26285d" d="M 45.867188 36.179688 C 45.867188 36.179688 45.933594 36.175781 45.984375 36.125 L 46 36.152344 C 46 36.152344 45.933594 36.1875 45.921875 36.234375 " fill-opacity="1" fill-rule="nonzero"/><path fill="#26285d" d="M 45.976562 36.304688 C 45.976562 36.304688 46.042969 36.300781 46.09375 36.25 L 46.109375 36.277344 C 46.109375 36.277344 46.042969 36.3125 46.03125 36.359375 L 45.976562 36.304688 " fill-opacity="1" fill-rule="nonzero"/><path fill="#26285d" d="M 45.890625 36.410156 C 45.890625 36.410156 45.90625 36.476562 45.875 36.535156 L 45.90625 36.546875 C 45.90625 36.546875 45.917969 36.46875 45.960938 36.449219 L 45.890625 36.410156 " fill-opacity="1" fill-rule="nonzero"/><path fill="#26285d" d="M 45.746094 36.332031 C 45.746094 36.332031 45.765625 36.398438 45.730469 36.460938 L 45.761719 36.46875 C 45.761719 36.46875 45.773438 36.394531 45.816406 36.371094 L 45.746094 36.332031 " fill-opacity="1" fill-rule="nonzero"/><path fill="#f7981a" d="M 46.125 36.621094 C 46.0625 36.621094 46.015625 36.566406 46.015625 36.503906 C 46.019531 36.441406 46.070312 36.390625 46.132812 36.394531 C 46.195312 36.394531 46.242188 36.449219 46.242188 36.511719 C 46.238281 36.574219 46.1875 36.625 46.125 36.621094 " fill-opacity="1" fill-rule="nonzero"/><path fill="#e66f64" d="M 45.277344 35.871094 C 45.277344 35.871094 45.328125 35.824219 45.402344 35.832031 C 45.480469 35.835938 45.421875 35.867188 45.269531 35.933594 L 45.277344 35.871094 " fill-opacity="1" fill-rule="nonzero"/><path fill="#26285d" d="M 45.6875 36.257812 L 43.972656 34.925781 L 44.0625 34.808594 L 45.746094 36.140625 L 45.6875 36.257812 " fill-opacity="1" fill-rule="nonzero"/><path fill="#f7981a" d="M 45.671875 36.164062 C 45.671875 36.164062 45.808594 36.078125 45.816406 36.082031 C 45.824219 36.085938 46.082031 36.378906 46.117188 36.410156 C 46.175781 36.464844 46.203125 36.558594 46.136719 36.578125 C 46.042969 36.601562 46.011719 36.515625 46.015625 36.503906 C 46.019531 36.492188 45.648438 36.308594 45.648438 36.308594 L 45.671875 36.164062 " fill-opacity="1" fill-rule="nonzero"/><path stroke-linecap="butt" transform="matrix(0.00145012, 0, 0, -0.00146716, 22.515952, 52.303692)" fill="none" stroke-linejoin="miter" d="M 14187.757648 12323.814089 L 16156.889137 10822.190842 " stroke="#ffffff" stroke-width="7.291" stroke-opacity="1" stroke-miterlimit="10"/><path stroke-linecap="butt" transform="matrix(0.00145012, 0, 0, -0.00146716, 22.515952, 52.303692)" fill="none" stroke-linejoin="miter" d="M 14187.757648 12347.776163 L 16218.845394 10819.528389 " stroke="#ffffff" stroke-width="7.291" stroke-opacity="1" stroke-miterlimit="10"/><path stroke-linecap="butt" transform="matrix(0.00145012, 0, 0, -0.00146716, 22.515952, 52.303692)" fill="none" stroke-linejoin="miter" d="M 14225.470153 12361.088425 L 16148.807886 10904.726871 " stroke="#ffffff" stroke-width="7.291" stroke-opacity="1" stroke-miterlimit="10"/><path fill="#26285d" d="M 43.070312 34.292969 L 43.175781 34.144531 C 43.175781 34.144531 43 34.082031 42.757812 33.910156 C 42.664062 33.84375 42.921875 34.085938 43.070312 34.292969 " fill-opacity="1" fill-rule="nonzero"/><path fill="#ffffff" d="M 43.902344 34.609375 L 43.722656 34.855469 L 43.738281 34.863281 L 43.917969 34.621094 L 43.902344 34.609375 " fill-opacity="1" fill-rule="nonzero"/><path fill="#ffffff" d="M 43.753906 34.511719 L 43.574219 34.753906 L 43.589844 34.765625 L 43.769531 34.519531 L 43.753906 34.511719 " fill-opacity="1" fill-rule="nonzero"/><path fill="#26285d" d="M 45.894531 36.175781 L 45.824219 36.109375 " fill-opacity="1" fill-rule="nonzero"/><path fill="#f68c82" d="M 42.890625 33.742188 C 42.890625 33.742188 42.683594 34.066406 42.332031 33.828125 C 42.066406 33.648438 41.835938 32.722656 41.980469 32.554688 C 42.125 32.386719 42.800781 32.355469 42.96875 32.699219 C 43.097656 32.96875 43.039062 33.511719 42.890625 33.742188 " fill-opacity="1" fill-rule="nonzero"/><path fill="#2e3192" d="M 42.304688 32.816406 C 42.304688 32.816406 42.199219 32.445312 41.960938 32.503906 C 41.960938 32.503906 41.703125 32.914062 41.957031 33.351562 C 42.09375 33.59375 42.320312 33.855469 42.320312 33.855469 L 42.191406 33.328125 C 42.191406 33.328125 42.097656 32.96875 42.304688 32.816406 " fill-opacity="1" fill-rule="nonzero"/><path fill="#f68c82" d="M 42.261719 33.351562 C 42.300781 33.433594 42.285156 33.519531 42.234375 33.542969 C 42.179688 33.570312 42.105469 33.523438 42.066406 33.441406 C 42.03125 33.359375 42.042969 33.273438 42.097656 33.246094 C 42.152344 33.222656 42.226562 33.269531 42.261719 33.351562 " fill-opacity="1" fill-rule="nonzero"/><path fill="#2e3192" d="M 41.128906 35.375 C 41.128906 35.375 41.5625 35.59375 42.003906 36.125 C 42.003906 36.125 42.164062 36.296875 41.910156 36.339844 C 41.65625 36.382812 40.851562 35.992188 40.730469 35.785156 C 40.609375 35.578125 40.699219 34.980469 41.128906 35.375 " fill-opacity="1" fill-rule="nonzero"/><path fill="#26285d" d="M 42.011719 36.3125 L 44.164062 34.078125 L 44.121094 34.03125 L 41.964844 36.265625 L 42.011719 36.3125 " fill-opacity="1" fill-rule="nonzero"/><path fill="#ffffff" d="M 42.082031 36.382812 L 44.234375 34.148438 L 44.210938 34.125 L 42.058594 36.359375 L 42.082031 36.382812 " fill-opacity="1" fill-rule="nonzero"/><path fill="#26285d" d="M 42.054688 36.238281 L 42.085938 36.382812 L 42.03125 36.441406 L 41.964844 36.265625 L 42.054688 36.238281 " fill-opacity="1" fill-rule="nonzero"/><path fill="#26285d" d="M 44.09375 34.121094 L 44.238281 34.148438 L 44.296875 34.089844 L 44.121094 34.03125 L 44.09375 34.121094 " fill-opacity="1" fill-rule="nonzero"/><path fill="#f68c82" d="M 41.84375 36.007812 C 41.84375 36.007812 42 35.957031 42.160156 36.039062 C 42.320312 36.121094 42.164062 36.128906 41.761719 36.128906 L 41.84375 36.007812 " fill-opacity="1" fill-rule="nonzero"/><path fill="#f68c82" d="M 41.851562 36.03125 C 41.851562 36.03125 41.945312 36.042969 42.097656 36.09375 C 42.25 36.144531 42.257812 36.152344 42.351562 36.195312 C 42.414062 36.222656 42.34375 36.238281 42.339844 36.242188 C 42.339844 36.242188 42.351562 36.242188 42.34375 36.257812 C 42.339844 36.269531 42.316406 36.292969 42.300781 36.300781 C 42.289062 36.304688 42.253906 36.320312 42.238281 36.328125 C 42.164062 36.363281 42.03125 36.429688 41.742188 36.328125 C 41.742188 36.328125 41.671875 36.09375 41.851562 36.03125 " fill-opacity="1" fill-rule="nonzero"/><path fill="#2e3192" d="M 42.078125 32.519531 C 42.078125 32.519531 42.265625 32.621094 42.328125 32.804688 C 42.328125 32.804688 42.800781 32.949219 43.042969 32.734375 C 43.042969 32.734375 43.078125 32.585938 43 32.507812 C 42.933594 32.445312 42.59375 32.09375 41.960938 32.503906 L 42.078125 32.519531 " fill-opacity="1" fill-rule="nonzero"/><path fill="#e66f64" d="M 45.054688 36.132812 C 45.054688 36.132812 45.148438 36.15625 45.308594 36.167969 C 45.46875 36.179688 45.476562 36.175781 45.582031 36.171875 C 45.652344 36.167969 45.59375 36.125 45.59375 36.121094 C 45.589844 36.117188 45.601562 36.125 45.601562 36.101562 C 45.601562 36.089844 45.589844 36.058594 45.578125 36.042969 C 45.570312 36.035156 45.546875 36.003906 45.535156 35.992188 C 45.484375 35.929688 45.386719 35.808594 45.078125 35.796875 C 45.078125 35.796875 44.917969 36 45.054688 36.132812 " fill-opacity="1" fill-rule="nonzero"/><path fill="#ffffff" d="M 41.757812 36.15625 C 41.746094 36.191406 41.742188 36.226562 41.746094 36.265625 C 41.746094 36.265625 41.746094 36.269531 41.746094 36.269531 C 41.746094 36.296875 41.75 36.316406 41.753906 36.339844 C 41.726562 36.335938 41.699219 36.332031 41.667969 36.324219 C 41.601562 36.25 41.726562 36.035156 41.816406 35.953125 C 41.835938 35.972656 41.84375 35.976562 41.863281 35.996094 C 41.808594 36.027344 41.78125 36.089844 41.757812 36.15625 " fill-opacity="1" fill-rule="nonzero"/><path fill="#2e3192" d="M 42.453125 33.082031 C 42.453125 33.082031 42.359375 32.828125 42.859375 32.820312 L 42.121094 32.523438 C 42.121094 32.523438 42.179688 32.957031 42.453125 33.082031 " fill-opacity="1" fill-rule="nonzero"/><path fill="#2e3192" d="M 47.585938 32.792969 L 47.316406 33.464844 C 47.316406 33.464844 47.339844 33.855469 47.542969 34.019531 C 47.746094 34.1875 48.292969 34.359375 48.574219 34.195312 L 48.507812 34.179688 C 48.507812 34.179688 48.835938 34.074219 49.011719 33.894531 L 48.949219 33.898438 C 48.949219 33.898438 49.230469 33.691406 49.472656 33.710938 C 49.472656 33.710938 49.285156 33.519531 49.167969 33.476562 L 49.382812 33.539062 C 49.382812 33.539062 49.199219 33.3125 49.027344 33.230469 C 48.855469 33.148438 48.628906 32.886719 48.558594 32.820312 C 48.492188 32.753906 47.585938 32.792969 47.585938 32.792969 " fill-opacity="1" fill-rule="nonzero"/><path fill="#f9a739" d="M 46.011719 37.792969 L 45.832031 38.410156 L 44.386719 40.734375 L 45.832031 40.851562 L 47.511719 39.242188 L 47.117188 37.859375 L 46.011719 37.792969 " fill-opacity="1" fill-rule="nonzero"/><path fill="#f68c82" d="M 46.082031 31 L 46.023438 30.867188 L 45.972656 30.703125 L 46.011719 30.4375 L 46.3125 30.339844 L 46.316406 29.953125 L 46.382812 29.945312 L 46.507812 30.597656 L 46.519531 30.550781 C 46.519531 30.550781 46.511719 30.519531 46.503906 30.484375 C 46.496094 30.453125 46.519531 30.382812 46.574219 30.367188 C 46.574219 30.367188 46.613281 30.539062 46.632812 30.578125 C 46.648438 30.605469 46.554688 30.785156 46.554688 30.785156 C 46.554688 30.785156 46.5 30.894531 46.460938 30.957031 L 46.46875 31.136719 L 46.105469 31.296875 L 46.082031 31 " fill-opacity="1" fill-rule="nonzero"/><path fill="#f9a739" d="M 47.917969 37.613281 L 48.257812 38.144531 L 50.570312 40.128906 L 50.359375 40.652344 L 49.5625 40.820312 L 46.980469 39.207031 L 46.855469 37.632812 L 47.917969 37.613281 " fill-opacity="1" fill-rule="nonzero"/><path fill="#f9a739" d="M 50.304688 40.179688 L 50.570312 40.128906 L 50.683594 43.246094 L 50.226562 43.4375 L 49.722656 43.339844 L 49.5625 40.820312 L 50.304688 40.179688 " fill-opacity="1" fill-rule="nonzero"/><path fill="#f9a739" d="M 45.671875 40.773438 L 45.832031 40.851562 L 43.015625 43.433594 C 43.015625 43.433594 42.398438 43.269531 42.328125 43.253906 C 42.257812 43.242188 42.203125 42.964844 42.203125 42.964844 L 44.386719 40.734375 L 45.671875 40.773438 " fill-opacity="1" fill-rule="nonzero"/><path fill="#f9a739" d="M 43.023438 43.109375 L 42.886719 43.605469 C 42.886719 43.605469 42.96875 43.894531 43.039062 44.121094 C 43.0625 44.203125 43.0625 44.203125 43.0625 44.203125 L 43.027344 44.300781 C 43.027344 44.300781 42.101562 44.292969 42.058594 44.285156 C 42.015625 44.273438 41.730469 44.097656 41.730469 44.097656 L 42.046875 43.523438 L 42.425781 42.875 L 43.019531 43.085938 " fill-opacity="1" fill-rule="nonzero"/><path fill="#f9a739" d="M 49.925781 43.242188 L 49.902344 44.15625 C 49.902344 44.15625 50.367188 44.226562 50.363281 44.234375 C 50.359375 44.242188 51.21875 44.496094 51.21875 44.496094 L 51.816406 44.488281 L 51.859375 44.308594 L 50.808594 43.625 L 50.613281 43.183594 L 49.925781 43.242188 " fill-opacity="1" fill-rule="nonzero"/><path fill="#e66f64" d="M 49.4375 36.386719 L 49.988281 36.875 L 50.222656 37.160156 L 50.0625 37.519531 L 49.671875 37.445312 L 49.121094 36.9375 L 49.4375 36.386719 " fill-opacity="1" fill-rule="nonzero"/><path fill="#e66f64" d="M 48.371094 34.472656 L 48.621094 34.613281 L 49.4375 36.386719 L 49.132812 36.953125 L 48.628906 36.386719 L 48.027344 35.476562 L 48.371094 34.472656 " fill-opacity="1" fill-rule="nonzero"/><path fill="#e66f64" d="M 46.226562 36.089844 C 46.226562 36.089844 46.132812 37.171875 46.058594 37.4375 L 46.011719 37.796875 C 46.011719 37.796875 47.039062 38.058594 47.789062 37.703125 L 46.226562 36.089844 " fill-opacity="1" fill-rule="nonzero"/><path fill="#2e3192" d="M 48.285156 34.460938 L 48.324219 34.421875 L 48.453125 34.507812 C 48.453125 34.507812 48.441406 35.761719 48.453125 35.742188 C 48.464844 35.71875 47.941406 36.667969 47.941406 36.667969 L 47.996094 37.625 C 47.996094 37.625 46.808594 37.886719 45.78125 37.113281 C 45.78125 37.113281 45.953125 36.699219 46.058594 36.355469 C 46.140625 36.09375 46.320312 34.816406 46.320312 34.816406 C 46.320312 34.816406 46.761719 34.1875 46.871094 34.054688 L 47.078125 34.085938 L 48.285156 34.460938 " fill-opacity="1" fill-rule="nonzero"/><path fill="#24265d" d="M 47.394531 37.925781 C 47.640625 37.894531 47.710938 37.738281 47.773438 37.65625 C 47.832031 37.574219 47.839844 37.171875 48.242188 37.070312 C 48.382812 37.035156 48.480469 37.0625 48.414062 37.171875 C 48.375 37.234375 48.214844 37.339844 48.195312 37.429688 C 48.121094 37.769531 48.488281 37.804688 48.488281 37.804688 L 48.921875 38.039062 C 48.921875 38.039062 48.902344 38.175781 49.074219 38.269531 C 49.105469 38.285156 49.273438 38.300781 49.355469 38.230469 C 49.570312 38.046875 49.582031 38.273438 49.503906 38.398438 C 49.28125 38.753906 48.800781 38.761719 48.703125 38.792969 C 48.609375 38.824219 48.414062 38.789062 48.25 39.097656 C 48.128906 39.332031 48.125 39.808594 47.683594 40.066406 C 47.238281 40.328125 46.726562 40.023438 46.390625 39.554688 C 46.0625 39.082031 45.898438 38.519531 46.273438 38.167969 C 46.574219 37.886719 47.222656 37.945312 47.394531 37.925781 " fill-opacity="1" fill-rule="nonzero"/><path fill="#24265d" d="M 48.488281 37.804688 L 48.742188 38.167969 L 51.488281 36.132812 L 51.269531 35.828125 L 48.488281 37.804688 " fill-opacity="1" fill-rule="nonzero"/><path stroke-linecap="butt" transform="matrix(0.00153277, 0, 0, -0.00155079, 22.515952, 52.303692)" fill="none" stroke-linejoin="miter" d="M 15958.409458 8679.405956 L 16159.739893 8397.291795 L 16299.906652 8498.046852 L 16098.576217 8780.161013 Z M 15958.409458 8679.405956 " stroke="#4e5152" stroke-width="24.462" stroke-opacity="1" stroke-miterlimit="10"/><path fill="#4e5152" d="M 47.015625 38.847656 L 47.296875 39.242188 L 47.460938 39.121094 L 47.179688 38.726562 L 47.015625 38.847656 " fill-opacity="1" fill-rule="nonzero"/><path stroke-linecap="butt" transform="matrix(0.00176334, 0, 0, -0.00178407, 22.515952, 52.303692)" fill="none" stroke-linejoin="miter" d="M 16299.661723 9208.549096 L 13989.150654 7597.064785 " stroke="#4e5152" stroke-width="18.809" stroke-opacity="1" stroke-miterlimit="10"/><path stroke-linecap="butt" transform="matrix(0.00176523, 0, 0, -0.00178598, 22.515952, 52.303692)" fill="none" stroke-linejoin="miter" d="M 16299.956703 9172.468962 L 14005.190609 7547.395338 " stroke="#4e5152" stroke-width="18.789" stroke-opacity="1" stroke-miterlimit="10"/><path stroke-linecap="butt" transform="matrix(0.00176769, 0, 0, -0.00178847, 22.515952, 52.303692)" fill="none" stroke-linejoin="miter" d="M 16299.323392 9129.098516 L 14016.59671 7493.186579 " stroke="#4e5152" stroke-width="18.761999" stroke-opacity="1" stroke-miterlimit="10"/><path stroke-linecap="butt" transform="matrix(0.00177451, 0, 0, -0.00179537, 22.515952, 52.303692)" fill="none" stroke-linejoin="miter" d="M 16300.560271 9004.830832 L 14048.614083 7344.741633 " stroke="#4e5152" stroke-width="18.690001" stroke-opacity="1" stroke-miterlimit="10"/><path stroke-linecap="butt" transform="matrix(0.00177262, 0, 0, -0.00179346, 22.515952, 52.303692)" fill="none" stroke-linejoin="miter" d="M 16300.265271 9040.543786 L 14032.702389 7396.113568 " stroke="#4e5152" stroke-width="18.711" stroke-opacity="1" stroke-miterlimit="10"/><path stroke-linecap="butt" transform="matrix(0.00177016, 0, 0, -0.00179097, 22.515952, 52.303692)" fill="none" stroke-linejoin="miter" d="M 16300.900339 9085.85119 L 14021.352387 7447.855059 " stroke="#4e5152" stroke-width="18.737" stroke-opacity="1" stroke-miterlimit="10"/><path fill="#24265d" d="M 51.214844 35.832031 L 51.464844 36.183594 L 51.503906 36.15625 L 51.253906 35.804688 L 51.214844 35.832031 " fill-opacity="1" fill-rule="nonzero"/><g clip-path="url(#5b9d4ba6ce)"><path fill="#24265d" d="M 51.261719 35.835938 L 51.304688 35.804688 C 51.304688 35.804688 51.351562 35.757812 51.304688 35.667969 C 51.261719 35.578125 51.40625 35.539062 51.519531 35.519531 C 51.863281 35.464844 52.136719 35.304688 52.136719 35.304688 C 52.136719 35.304688 52.003906 35.183594 52.140625 35.050781 C 52.265625 34.929688 52.472656 35.042969 52.441406 35.226562 C 52.421875 35.335938 52.179688 35.648438 51.878906 36.054688 C 51.832031 36.121094 51.785156 36.183594 51.722656 36.183594 C 51.644531 36.179688 51.527344 36.105469 51.527344 36.105469 L 51.476562 36.144531 L 51.261719 35.835938 " fill-opacity="1" fill-rule="nonzero"/></g><g clip-path="url(#7900da2c4c)"><path fill="#24265d" d="M 52.117188 35.8125 C 52.101562 35.828125 52.105469 35.851562 52.121094 35.867188 C 52.136719 35.878906 52.160156 35.878906 52.175781 35.859375 L 52.207031 35.820312 C 52.21875 35.804688 52.21875 35.78125 52.199219 35.765625 C 52.183594 35.753906 52.160156 35.753906 52.148438 35.773438 L 52.117188 35.8125 " fill-opacity="1" fill-rule="nonzero"/><path fill="#24265d" d="M 52.058594 35.757812 L 52.136719 35.820312 L 52.160156 35.792969 L 52.082031 35.730469 L 52.058594 35.757812 " fill-opacity="1" fill-rule="nonzero"/></g><g clip-path="url(#442fe31826)"><path fill="#24265d" d="M 52.019531 35.941406 C 52.007812 35.957031 52.011719 35.984375 52.027344 35.996094 C 52.042969 36.011719 52.066406 36.007812 52.082031 35.992188 L 52.113281 35.949219 C 52.125 35.933594 52.121094 35.910156 52.105469 35.894531 C 52.089844 35.882812 52.066406 35.886719 52.050781 35.902344 L 52.019531 35.941406 " fill-opacity="1" fill-rule="nonzero"/></g><g clip-path="url(#1019d2a3f2)"><path fill="#24265d" d="M 51.964844 35.886719 L 52.042969 35.953125 L 52.066406 35.921875 L 51.988281 35.859375 L 51.964844 35.886719 " fill-opacity="1" fill-rule="nonzero"/></g><g clip-path="url(#b4afdb69ee)"><path fill="#24265d" d="M 51.921875 36.066406 C 51.90625 36.082031 51.910156 36.105469 51.925781 36.121094 C 51.945312 36.132812 51.96875 36.128906 51.980469 36.113281 L 52.011719 36.074219 C 52.027344 36.058594 52.023438 36.03125 52.007812 36.019531 C 51.988281 36.003906 51.964844 36.007812 51.953125 36.023438 L 51.921875 36.066406 " fill-opacity="1" fill-rule="nonzero"/></g><path fill="#24265d" d="M 51.867188 36.011719 L 51.945312 36.074219 L 51.964844 36.046875 L 51.890625 35.984375 L 51.867188 36.011719 " fill-opacity="1" fill-rule="nonzero"/><g clip-path="url(#bdcb3f369e)"><path fill="#24265d" d="M 52.394531 35.4375 C 52.382812 35.453125 52.386719 35.480469 52.402344 35.492188 C 52.417969 35.507812 52.441406 35.503906 52.457031 35.488281 L 52.488281 35.445312 C 52.5 35.429688 52.496094 35.40625 52.480469 35.390625 C 52.464844 35.378906 52.441406 35.382812 52.425781 35.398438 L 52.394531 35.4375 " fill-opacity="1" fill-rule="nonzero"/><path fill="#24265d" d="M 52.339844 35.386719 L 52.417969 35.449219 L 52.441406 35.417969 L 52.363281 35.355469 L 52.339844 35.386719 " fill-opacity="1" fill-rule="nonzero"/><path fill="#24265d" d="M 52.300781 35.566406 C 52.289062 35.585938 52.289062 35.609375 52.308594 35.621094 C 52.324219 35.636719 52.347656 35.632812 52.359375 35.617188 L 52.390625 35.578125 C 52.40625 35.558594 52.402344 35.535156 52.386719 35.523438 C 52.371094 35.507812 52.34375 35.511719 52.332031 35.527344 L 52.300781 35.566406 " fill-opacity="1" fill-rule="nonzero"/><path fill="#24265d" d="M 52.246094 35.515625 L 52.324219 35.578125 L 52.347656 35.546875 L 52.269531 35.484375 L 52.246094 35.515625 " fill-opacity="1" fill-rule="nonzero"/><path fill="#24265d" d="M 52.203125 35.691406 C 52.1875 35.707031 52.191406 35.730469 52.207031 35.746094 C 52.222656 35.757812 52.25 35.757812 52.261719 35.738281 L 52.292969 35.699219 C 52.304688 35.683594 52.304688 35.660156 52.285156 35.644531 C 52.269531 35.632812 52.246094 35.632812 52.234375 35.652344 L 52.203125 35.691406 " fill-opacity="1" fill-rule="nonzero"/><path fill="#24265d" d="M 52.144531 35.636719 L 52.222656 35.699219 L 52.246094 35.671875 L 52.167969 35.609375 L 52.144531 35.636719 " fill-opacity="1" fill-rule="nonzero"/></g><path fill="#4e5152" d="M 48.253906 37.871094 C 48.230469 37.886719 48.222656 37.917969 48.242188 37.941406 L 48.535156 38.359375 C 48.554688 38.382812 48.585938 38.386719 48.609375 38.371094 C 48.628906 38.355469 48.636719 38.320312 48.621094 38.300781 L 48.324219 37.882812 C 48.308594 37.859375 48.273438 37.851562 48.253906 37.871094 " fill-opacity="1" fill-rule="nonzero"/><path fill="#4e5152" d="M 47.851562 38.160156 C 47.828125 38.175781 47.824219 38.207031 47.839844 38.230469 L 48.136719 38.648438 C 48.152344 38.671875 48.183594 38.679688 48.207031 38.660156 C 48.230469 38.644531 48.234375 38.613281 48.21875 38.589844 L 47.921875 38.171875 C 47.90625 38.148438 47.875 38.144531 47.851562 38.160156 " fill-opacity="1" fill-rule="nonzero"/><path fill="#4e5152" d="M 47.34375 38.535156 C 47.324219 38.554688 47.324219 38.585938 47.34375 38.605469 L 47.703125 38.972656 C 47.722656 38.992188 47.753906 38.992188 47.773438 38.972656 C 47.792969 38.949219 47.792969 38.917969 47.773438 38.898438 L 47.414062 38.535156 C 47.394531 38.515625 47.363281 38.515625 47.34375 38.535156 " fill-opacity="1" fill-rule="nonzero"/><path stroke-linecap="butt" transform="matrix(0.00162181, 0, 0, -0.00164087, 22.515952, 52.303692)" fill="none" stroke-linejoin="miter" d="M 16236.002254 8576.659856 C 16236.002254 8576.659856 15795.233039 8355.264958 15732.61009 8171.959506 C 15669.987141 7991.034643 15441.172521 7857.721587 15207.540751 8167.198325 C 15101.563454 8307.653153 14964.274682 8410.018535 14795.674435 8402.876764 C 14655.977088 8395.734993 14562.042666 8210.04895 14545.182641 8362.406729 C 14540.365491 8407.637945 14646.342789 8681.405829 14952.231807 8712.353503 C 15265.34655 8743.301176 15429.129647 8702.831141 15542.332669 8843.285969 C 15689.255741 9026.591422 15660.352842 9112.292672 15732.61009 9183.710381 C 15821.727363 9269.411632 15963.833285 9271.792222 15925.296086 9228.941597 C 15886.758887 9183.710381 15754.287265 9088.486769 15797.641614 8948.031942 C 15843.404538 8807.577114 16183.013605 8729.017635 16243.227979 8681.405829 C 16286.582328 8648.077565 16301.033778 8609.98812 16236.002254 8576.659856 Z M 16236.002254 8576.659856 " stroke="#4e5152" stroke-width="23.118" stroke-opacity="1" stroke-miterlimit="10"/><path fill="#4e5152" d="M 46.835938 38.402344 C 46.808594 38.425781 46.800781 38.46875 46.820312 38.5 C 46.84375 38.53125 46.886719 38.539062 46.917969 38.515625 C 46.949219 38.492188 46.957031 38.449219 46.933594 38.417969 C 46.910156 38.386719 46.867188 38.378906 46.835938 38.402344 " fill-opacity="1" fill-rule="nonzero"/><path fill="#4e5152" d="M 46.570312 38.339844 C 46.539062 38.363281 46.53125 38.40625 46.554688 38.4375 C 46.578125 38.46875 46.621094 38.476562 46.648438 38.453125 C 46.679688 38.429688 46.6875 38.386719 46.664062 38.355469 C 46.644531 38.324219 46.601562 38.316406 46.570312 38.339844 " fill-opacity="1" fill-rule="nonzero"/><g clip-path="url(#02c2387628)"><path fill="#4e5152" d="M 51.863281 35.96875 C 51.847656 35.988281 51.820312 35.992188 51.800781 35.976562 C 51.78125 35.960938 51.777344 35.929688 51.792969 35.910156 L 52.246094 35.324219 C 52.261719 35.304688 52.289062 35.300781 52.3125 35.316406 C 52.332031 35.332031 52.332031 35.359375 52.320312 35.378906 L 51.863281 35.96875 " fill-opacity="1" fill-rule="nonzero"/></g><path fill="#e66f64" d="M 48.015625 33.910156 C 48.015625 33.910156 47.988281 34.070312 47.980469 34.269531 L 48.304688 34.4375 L 48.230469 34.925781 L 47.953125 35.355469 L 47.117188 34.472656 L 47.011719 34.082031 L 47.40625 34.121094 L 47.496094 33.726562 L 48.015625 33.910156 " fill-opacity="1" fill-rule="nonzero"/><path fill="#f68c82" d="M 48.664062 33.035156 C 48.722656 33.164062 48.757812 33.332031 48.601562 33.671875 C 48.511719 33.863281 48.476562 33.925781 48.359375 34.023438 C 48.316406 34.0625 48.070312 34.289062 48.03125 34.285156 C 47.996094 34.28125 47.519531 34.003906 47.5 33.722656 C 47.5 33.722656 47.4375 33.019531 47.734375 32.8125 C 48.050781 32.597656 48.550781 32.769531 48.664062 33.035156 " fill-opacity="1" fill-rule="nonzero"/><path fill="#f68c82" d="M 48.691406 33.429688 C 48.589844 33.804688 48.203125 34.027344 47.828125 33.925781 C 47.457031 33.820312 47.234375 33.429688 47.339844 33.050781 C 47.441406 32.675781 47.828125 32.453125 48.199219 32.554688 C 48.574219 32.660156 48.792969 33.050781 48.691406 33.429688 " fill-opacity="1" fill-rule="nonzero"/><path fill="#2e3192" d="M 48.609375 33.300781 C 48.589844 33.285156 48.570312 33.300781 48.542969 33.320312 C 48.503906 33.34375 48.472656 33.378906 48.433594 33.398438 C 48.335938 33.449219 48.226562 33.496094 48.117188 33.496094 C 48.027344 33.496094 47.9375 33.488281 47.847656 33.488281 C 47.796875 33.488281 47.734375 33.480469 47.683594 33.492188 C 47.640625 33.5 47.617188 33.535156 47.582031 33.550781 C 47.542969 33.566406 47.53125 33.519531 47.496094 33.503906 C 47.4375 33.480469 47.371094 33.527344 47.324219 33.558594 C 47.304688 33.492188 47.269531 33.429688 47.265625 33.359375 C 47.25 33.15625 47.289062 33.140625 47.320312 33.039062 C 47.339844 32.980469 47.347656 32.925781 47.375 32.871094 C 47.429688 32.746094 47.511719 32.65625 47.621094 32.578125 C 47.707031 32.519531 47.839844 32.503906 47.945312 32.492188 C 48.042969 32.484375 48.203125 32.46875 48.292969 32.503906 C 48.460938 32.570312 48.570312 32.75 48.667969 32.886719 C 48.722656 32.960938 48.78125 33.0625 48.800781 33.152344 C 48.8125 33.226562 48.804688 33.347656 48.746094 33.402344 C 48.679688 33.46875 48.652344 33.375 48.628906 33.324219 C 48.621094 33.3125 48.617188 33.304688 48.609375 33.300781 " fill-opacity="1" fill-rule="nonzero"/><path fill="#f68c82" d="M 47.421875 33.46875 C 47.460938 33.46875 47.503906 33.472656 47.542969 33.476562 C 47.546875 33.496094 47.546875 33.507812 47.546875 33.507812 C 47.546875 33.507812 47.570312 33.605469 47.503906 33.753906 C 47.503906 33.753906 47.359375 33.648438 47.363281 33.46875 C 47.382812 33.46875 47.402344 33.46875 47.421875 33.46875 " fill-opacity="1" fill-rule="nonzero"/><path fill="#f68c82" d="M 46.21875 35.746094 C 46.21875 35.746094 46.433594 35.816406 46.785156 35.40625 C 46.980469 35.175781 46.980469 34.523438 46.980469 34.523438 L 46.691406 32.835938 L 46.464844 31.015625 L 46.097656 31.203125 L 46.167969 32.949219 L 46.273438 34.8125 L 46.21875 35.746094 " fill-opacity="1" fill-rule="nonzero"/><path fill="#e66f64" d="M 50.042969 37.070312 C 50.042969 37.070312 50.113281 36.980469 50.144531 36.960938 C 50.179688 36.945312 50.257812 36.925781 50.28125 36.925781 C 50.304688 36.929688 50.3125 36.988281 50.3125 36.988281 C 50.3125 36.988281 50.222656 37.054688 50.210938 37.074219 C 50.199219 37.09375 50.152344 37.164062 50.152344 37.164062 L 50.042969 37.070312 " fill-opacity="1" fill-rule="nonzero"/><path fill="#f68c82" d="M 49.933594 36.816406 C 49.933594 36.816406 49.992188 36.832031 50.011719 36.859375 C 50.03125 36.886719 50.171875 37.136719 50.171875 37.136719 C 50.171875 37.136719 50.179688 37.292969 50.171875 37.34375 C 50.164062 37.394531 50.066406 37.492188 50.050781 37.492188 C 49.957031 37.503906 49.75 37.433594 49.707031 37.394531 C 49.664062 37.351562 49.597656 37.164062 49.589844 37.109375 C 49.589844 37.109375 49.605469 37.09375 49.621094 37.089844 C 49.632812 37.085938 49.601562 36.847656 49.625 36.832031 C 49.652344 36.820312 49.652344 36.828125 49.703125 36.867188 C 49.703125 36.867188 49.707031 36.871094 49.707031 36.871094 C 49.707031 36.871094 49.730469 36.828125 49.777344 36.828125 L 49.910156 36.941406 L 49.910156 36.878906 C 49.910156 36.878906 49.886719 36.832031 49.933594 36.816406 " fill-opacity="1" fill-rule="nonzero"/><path fill="#2e3192" d="M 48.65625 33.132812 C 48.65625 33.132812 48.679688 33.535156 48.332031 33.699219 L 48.429688 33.558594 C 48.429688 33.558594 48.347656 33.660156 48.140625 33.652344 L 48.238281 33.558594 C 48.238281 33.558594 48.0625 33.609375 47.828125 33.558594 L 47.941406 33.5 C 47.941406 33.5 47.734375 33.570312 47.585938 33.457031 L 48.148438 33.019531 L 48.65625 33.132812 " fill-opacity="1" fill-rule="nonzero"/><path fill="#2e3192" d="M 48.589844 33.359375 C 48.589844 33.359375 48.558594 33.636719 48.488281 33.726562 C 48.488281 33.726562 48.597656 33.738281 48.65625 33.59375 L 48.660156 33.726562 C 48.660156 33.726562 48.824219 33.484375 48.78125 33.285156 C 48.78125 33.285156 48.839844 33.519531 48.804688 33.597656 C 48.804688 33.597656 48.941406 33.289062 48.78125 33.085938 L 48.589844 33.1875 L 48.589844 33.359375 " fill-opacity="1" fill-rule="nonzero"/><path fill="#2e3192" d="M 45.847656 39.925781 C 45.847656 39.960938 45.875 39.988281 45.910156 39.988281 C 45.945312 39.988281 45.972656 39.960938 45.972656 39.925781 C 45.972656 39.890625 45.945312 39.863281 45.910156 39.863281 C 45.875 39.863281 45.847656 39.890625 45.847656 39.925781 " fill-opacity="1" fill-rule="nonzero"/><path fill="#2e3192" d="M 45.558594 40.382812 C 45.558594 40.417969 45.585938 40.449219 45.621094 40.449219 C 45.65625 40.449219 45.683594 40.417969 45.683594 40.382812 C 45.683594 40.347656 45.65625 40.320312 45.621094 40.320312 C 45.585938 40.320312 45.558594 40.347656 45.558594 40.382812 " fill-opacity="1" fill-rule="nonzero"/><path fill="#2e3192" d="M 45.261719 40.84375 C 45.261719 40.878906 45.289062 40.910156 45.324219 40.910156 C 45.359375 40.910156 45.386719 40.878906 45.386719 40.84375 C 45.386719 40.808594 45.359375 40.78125 45.324219 40.78125 C 45.289062 40.78125 45.261719 40.808594 45.261719 40.84375 " fill-opacity="1" fill-rule="nonzero"/><path fill="#2e3192" d="M 44.953125 41.394531 C 44.953125 41.429688 44.980469 41.457031 45.015625 41.457031 C 45.050781 41.457031 45.078125 41.429688 45.078125 41.394531 C 45.078125 41.359375 45.050781 41.328125 45.015625 41.328125 C 44.980469 41.328125 44.953125 41.359375 44.953125 41.394531 " fill-opacity="1" fill-rule="nonzero"/><path fill="#2e3192" d="M 44.5625 41.832031 C 44.5625 41.867188 44.589844 41.894531 44.625 41.894531 C 44.660156 41.894531 44.6875 41.867188 44.6875 41.832031 C 44.6875 41.796875 44.660156 41.769531 44.625 41.769531 C 44.589844 41.769531 44.5625 41.796875 44.5625 41.832031 " fill-opacity="1" fill-rule="nonzero"/><path fill="#2e3192" d="M 44.199219 42.199219 C 44.199219 42.234375 44.226562 42.261719 44.261719 42.261719 C 44.296875 42.261719 44.324219 42.234375 44.324219 42.199219 C 44.324219 42.164062 44.296875 42.132812 44.261719 42.132812 C 44.226562 42.132812 44.199219 42.164062 44.199219 42.199219 " fill-opacity="1" fill-rule="nonzero"/><path fill="#2e3192" d="M 43.796875 42.605469 C 43.796875 42.640625 43.824219 42.671875 43.859375 42.671875 C 43.894531 42.671875 43.921875 42.640625 43.921875 42.605469 C 43.921875 42.570312 43.894531 42.542969 43.859375 42.542969 C 43.824219 42.542969 43.796875 42.570312 43.796875 42.605469 " fill-opacity="1" fill-rule="nonzero"/><path fill="#2e3192" d="M 43.398438 42.984375 C 43.398438 43.019531 43.425781 43.050781 43.460938 43.050781 C 43.496094 43.050781 43.523438 43.019531 43.523438 42.984375 C 43.523438 42.949219 43.496094 42.921875 43.460938 42.921875 C 43.425781 42.921875 43.398438 42.949219 43.398438 42.984375 " fill-opacity="1" fill-rule="nonzero"/><path fill="#2e3192" d="M 42.957031 43.460938 C 42.957031 43.496094 42.984375 43.523438 43.019531 43.523438 C 43.054688 43.523438 43.082031 43.496094 43.082031 43.460938 C 43.082031 43.425781 43.054688 43.394531 43.019531 43.394531 C 42.984375 43.394531 42.957031 43.425781 42.957031 43.460938 " fill-opacity="1" fill-rule="nonzero"/><path fill="#24265d" d="M 32.867188 36.90625 L 33.089844 42.761719 L 35.21875 48.300781 L 31.640625 48.804688 L 30.3125 39.71875 L 32.867188 36.90625 " fill-opacity="1" fill-rule="nonzero"/><path fill="#e66f64" d="M 38.675781 35.253906 C 38.675781 35.253906 38.207031 35.171875 38.074219 35.082031 C 37.941406 34.988281 37.71875 34.730469 37.675781 34.636719 C 37.628906 34.542969 37.84375 34.40625 37.84375 34.40625 C 37.84375 34.40625 38.265625 34.601562 38.363281 34.609375 C 38.460938 34.617188 38.804688 34.648438 38.804688 34.648438 L 38.675781 35.253906 " fill-opacity="1" fill-rule="nonzero"/><path fill="#2e3192" d="M 27.382812 27.5 C 27.382812 27.5 26.824219 28.0625 27.152344 28.757812 C 27.484375 29.453125 27.652344 29.46875 27.382812 29.894531 C 27.113281 30.316406 27.394531 30.425781 27.898438 30.707031 C 28.402344 30.984375 28.351562 31.488281 28.320312 31.917969 C 28.289062 32.351562 29.761719 31.453125 29.761719 31.453125 C 29.761719 31.453125 30.078125 30.265625 30.128906 30.242188 C 30.183594 30.21875 30.628906 29.519531 30.546875 29.335938 C 30.464844 29.148438 29.960938 28.097656 29.59375 27.773438 C 29.226562 27.453125 28.5 26.839844 28.320312 26.808594 C 28.136719 26.773438 27.382812 27.5 27.382812 27.5 " fill-opacity="1" fill-rule="nonzero"/><g clip-path="url(#36e2f47676)"><path fill="#2a235a" d="M 43.054688 52.292969 L 33.699219 47.761719 L 32.039062 45.683594 L 27.582031 46.234375 L 29.035156 52.292969 L 43.054688 52.292969 " fill-opacity="1" fill-rule="nonzero"/></g><g clip-path="url(#8107c7fa0e)"><path fill="#473e9f" d="M 42.433594 52.292969 L 40.28125 48.292969 L 38.027344 48.15625 L 37.175781 52.292969 L 42.433594 52.292969 " fill-opacity="1" fill-rule="nonzero"/></g><path fill="#24265d" d="M 33.816406 32.804688 L 34.164062 32.675781 L 37.457031 37.316406 L 41.179688 40.742188 L 38.664062 42.074219 L 35.585938 39.578125 L 33.089844 36.992188 L 33.816406 32.804688 " fill-opacity="1" fill-rule="nonzero"/><path fill="#ffffff" d="M 32.222656 32.25 L 32.359375 32.070312 L 34.164062 32.675781 C 34.164062 32.675781 33.476562 36.503906 33.511719 36.402344 C 33.546875 36.300781 31.585938 40.816406 31.585938 40.816406 L 32.457031 46.160156 C 32.457031 46.160156 28.585938 48.65625 23.75 47.957031 C 23.75 47.957031 23.75 40.707031 23.75 39.542969 C 23.75 38.382812 24.101562 34.621094 24.101562 34.621094 C 24.101562 34.621094 25.757812 32.242188 26.160156 31.625 L 30.714844 33.652344 L 32.222656 32.25 " fill-opacity="1" fill-rule="nonzero"/><path fill="#2e3192" d="M 32.867188 32.015625 L 32.53125 37.941406 L 32.03125 42.074219 L 35.21875 48.300781 L 33.050781 41.734375 L 33.859375 37.789062 L 34.164062 32.675781 L 32.867188 32.015625 " fill-opacity="1" fill-rule="nonzero"/><g clip-path="url(#51dd6af06b)"><path fill="#473e9f" d="M 24.671875 44.972656 L 22.515625 47.496094 L 22.515625 48.457031 L 24.238281 52.292969 L 38.167969 52.292969 L 39.953125 51.039062 L 40.28125 48.292969 L 24.671875 44.972656 " fill-opacity="1" fill-rule="nonzero"/></g><g clip-path="url(#a2b02ba7ce)"><path fill="#2e3192" d="M 25.964844 31.769531 L 23.75 37.519531 L 22.515625 42.964844 L 22.515625 49.3125 L 24.558594 49.507812 L 28.097656 39.550781 L 25.964844 31.769531 " fill-opacity="1" fill-rule="nonzero"/></g><path fill="#ffffff" d="M 41.875 29.507812 C 41.804688 29.558594 41.707031 29.542969 41.65625 29.46875 C 41.609375 29.398438 41.625 29.300781 41.695312 29.25 L 41.863281 29.132812 C 41.933594 29.082031 42.03125 29.101562 42.082031 29.171875 C 42.128906 29.242188 42.113281 29.339844 42.042969 29.390625 L 41.875 29.507812 " fill-opacity="1" fill-rule="nonzero"/><path fill="#ffffff" d="M 42.070312 29.75 L 41.839844 29.414062 L 41.964844 29.328125 L 42.195312 29.664062 L 42.070312 29.75 " fill-opacity="1" fill-rule="nonzero"/><path fill="#ffffff" d="M 41.328125 29.863281 C 41.257812 29.910156 41.160156 29.894531 41.113281 29.824219 C 41.0625 29.75 41.082031 29.652344 41.152344 29.605469 L 41.320312 29.484375 C 41.390625 29.4375 41.488281 29.453125 41.535156 29.523438 C 41.585938 29.597656 41.566406 29.695312 41.496094 29.742188 L 41.328125 29.863281 " fill-opacity="1" fill-rule="nonzero"/><path fill="#ffffff" d="M 41.527344 30.101562 L 41.296875 29.765625 L 41.417969 29.679688 L 41.648438 30.015625 L 41.527344 30.101562 " fill-opacity="1" fill-rule="nonzero"/><path fill="#ffffff" d="M 40.808594 30.234375 C 40.738281 30.285156 40.640625 30.269531 40.59375 30.195312 C 40.542969 30.125 40.5625 30.027344 40.632812 29.976562 L 40.800781 29.859375 C 40.871094 29.808594 40.96875 29.828125 41.015625 29.898438 C 41.066406 29.96875 41.046875 30.066406 40.976562 30.117188 L 40.808594 30.234375 " fill-opacity="1" fill-rule="nonzero"/><path fill="#ffffff" d="M 41.007812 30.476562 L 40.777344 30.140625 L 40.898438 30.054688 L 41.128906 30.390625 L 41.007812 30.476562 " fill-opacity="1" fill-rule="nonzero"/><path fill="#ffffff" d="M 43.445312 28.464844 C 43.375 28.511719 43.277344 28.496094 43.230469 28.425781 C 43.179688 28.351562 43.195312 28.253906 43.269531 28.207031 L 43.433594 28.085938 C 43.507812 28.039062 43.601562 28.054688 43.652344 28.125 C 43.703125 28.199219 43.683594 28.296875 43.613281 28.347656 L 43.445312 28.464844 " fill-opacity="1" fill-rule="nonzero"/><path fill="#ffffff" d="M 43.644531 28.703125 L 43.414062 28.367188 L 43.535156 28.28125 L 43.765625 28.617188 L 43.644531 28.703125 " fill-opacity="1" fill-rule="nonzero"/><path fill="#ffffff" d="M 42.902344 28.816406 C 42.832031 28.867188 42.734375 28.847656 42.683594 28.777344 C 42.636719 28.707031 42.652344 28.609375 42.722656 28.558594 L 42.890625 28.441406 C 42.960938 28.390625 43.058594 28.40625 43.109375 28.480469 C 43.15625 28.550781 43.140625 28.648438 43.070312 28.699219 L 42.902344 28.816406 " fill-opacity="1" fill-rule="nonzero"/><path fill="#ffffff" d="M 43.097656 29.054688 L 42.867188 28.71875 L 42.992188 28.632812 L 43.222656 28.96875 L 43.097656 29.054688 " fill-opacity="1" fill-rule="nonzero"/><path fill="#ffffff" d="M 42.382812 29.191406 C 42.3125 29.242188 42.214844 29.222656 42.164062 29.152344 C 42.117188 29.078125 42.132812 28.980469 42.203125 28.933594 L 42.371094 28.8125 C 42.441406 28.765625 42.539062 28.78125 42.589844 28.851562 C 42.636719 28.925781 42.621094 29.023438 42.550781 29.070312 L 42.382812 29.191406 " fill-opacity="1" fill-rule="nonzero"/><path fill="#ffffff" d="M 42.578125 29.429688 L 42.351562 29.09375 L 42.472656 29.007812 L 42.703125 29.34375 L 42.578125 29.429688 " fill-opacity="1" fill-rule="nonzero"/><g clip-path="url(#723a408fb5)"><path fill="#bf1b2c" d="M 25.351562 51.917969 C 25.511719 52.050781 25.675781 52.175781 25.839844 52.292969 L 31.238281 52.292969 C 32.050781 51.003906 32.027344 48.859375 32.140625 48.257812 C 32.324219 47.257812 32.96875 47.003906 33.316406 46.777344 C 33.664062 46.550781 35.273438 46.640625 35.789062 45.011719 C 35.964844 44.449219 35.882812 44.046875 35.429688 44.289062 C 35.167969 44.425781 34.707031 45.050781 34.332031 45.109375 C 32.957031 45.324219 32.921875 43.816406 32.921875 43.816406 L 32.101562 41.976562 C 32.101562 41.976562 31.546875 42.011719 31.226562 41.28125 C 31.171875 41.160156 31.152344 40.460938 31.457031 40.136719 C 32.242188 39.316406 31.339844 39.199219 30.816406 39.484375 C 29.335938 40.308594 29.183594 42.265625 29.027344 42.652344 C 28.875 43.042969 28.957031 43.839844 27.679688 44.425781 C 26.71875 44.867188 24.808594 44.746094 23.652344 46.488281 C 22.5 48.230469 23.574219 50.414062 25.351562 51.917969 " fill-opacity="1" fill-rule="nonzero"/></g><g clip-path="url(#4152ebfedd)"><path fill="#ffffff" d="M 28.175781 48.863281 C 29.046875 49.628906 29.660156 50.589844 29.535156 51.703125 C 29.511719 51.921875 29.417969 52.117188 29.308594 52.292969 L 30.976562 52.292969 C 31.28125 51.921875 31.53125 51.433594 31.636719 50.804688 C 31.984375 48.738281 31.792969 47.625 32.765625 46.945312 C 34.03125 46.058594 34.574219 46.285156 35.082031 45.828125 C 35.683594 45.285156 35.765625 44.335938 35.457031 44.570312 C 35.148438 44.808594 34.460938 45.652344 33.558594 45.289062 C 32.652344 44.925781 32.285156 42.636719 32.003906 42.210938 C 31.804688 41.910156 31.5625 41.808594 31.3125 42.214844 C 31.3125 42.214844 29.667969 45.039062 28.445312 45.382812 C 27.222656 45.722656 26.253906 47.179688 28.175781 48.863281 " fill-opacity="1" fill-rule="nonzero"/></g><path fill="#faba2e" d="M 32.921875 43.816406 L 31.539062 42.667969 L 40.417969 31.984375 L 41.585938 32.960938 L 32.921875 43.816406 " fill-opacity="1" fill-rule="nonzero"/><path stroke-linecap="butt" transform="matrix(0.00145012, 0, 0, -0.00146716, 22.515952, 52.303692)" fill="none" stroke-linejoin="miter" d="M 4021.543917 1767.189662 L 2882.087528 2704.372966 L 3353.493836 3276.800268 L 4492.950224 2339.616964 Z M 4021.543917 1767.189662 " stroke="#4a0b1e" stroke-width="54.224998" stroke-opacity="1" stroke-miterlimit="10"/><path fill="#4a0b1e" d="M 28.355469 49.558594 L 26.84375 48.296875 L 27.371094 47.648438 L 28.882812 48.910156 L 28.355469 49.558594 " fill-opacity="1" fill-rule="nonzero"/><path stroke-linecap="butt" transform="matrix(0.00145012, 0, 0, -0.00146716, 22.515952, 52.303692)" fill="none" stroke-linejoin="miter" d="M 13010.588756 13154.49929 L 4325.937703 2328.967154 " stroke="#ffffff" stroke-width="47.966999" stroke-opacity="1" stroke-miterlimit="10"/><path stroke-linecap="butt" transform="matrix(0.00145012, 0, 0, -0.00146716, 22.515952, 52.303692)" fill="none" stroke-linejoin="miter" d="M 12894.757492 13253.010035 L 4123.906429 2494.039213 " stroke="#ffffff" stroke-width="47.966999" stroke-opacity="1" stroke-miterlimit="10"/><path stroke-linecap="butt" transform="matrix(0.00145012, 0, 0, -0.00146716, 22.515952, 52.303692)" fill="none" stroke-linejoin="miter" d="M 12743.907473 13375.482853 L 3929.956405 2656.44882 " stroke="#ffffff" stroke-width="47.966999" stroke-opacity="1" stroke-miterlimit="10"/><path stroke-linecap="butt" transform="matrix(0.00145012, 0, 0, -0.00146716, 22.515952, 52.303692)" fill="none" stroke-linejoin="miter" d="M 12331.763673 13716.276782 L 3364.268837 3122.378019 " stroke="#ffffff" stroke-width="47.966999" stroke-opacity="1" stroke-miterlimit="10"/><path stroke-linecap="butt" transform="matrix(0.00145012, 0, 0, -0.00146716, 22.515952, 52.303692)" fill="none" stroke-linejoin="miter" d="M 12450.288688 13617.766037 L 3563.606361 2957.30596 " stroke="#ffffff" stroke-width="47.966999" stroke-opacity="1" stroke-miterlimit="10"/><path stroke-linecap="butt" transform="matrix(0.00145012, 0, 0, -0.00146716, 22.515952, 52.303692)" fill="none" stroke-linejoin="miter" d="M 12598.444956 13495.293219 L 3760.250135 2794.896353 " stroke="#ffffff" stroke-width="47.966999" stroke-opacity="1" stroke-miterlimit="10"/><path fill="#4a0b1e" d="M 41.546875 33.183594 L 40.207031 32.066406 L 40.332031 31.914062 L 41.671875 33.03125 L 41.546875 33.183594 " fill-opacity="1" fill-rule="nonzero"/><path fill="#fbbf2e" d="M 41.539062 33.003906 L 41.683594 32.824219 C 41.683594 32.824219 41.878906 32.652344 42.234375 32.859375 C 42.578125 33.0625 42.773438 32.492188 42.875 32.03125 C 43.1875 30.640625 43.902344 29.558594 43.902344 29.558594 C 43.902344 29.558594 44.359375 30.140625 44.921875 29.613281 C 45.4375 29.136719 45.042969 28.25 44.308594 28.332031 C 43.863281 28.382812 42.539062 29.289062 40.835938 30.40625 C 40.554688 30.59375 40.304688 30.757812 40.289062 31.011719 C 40.269531 31.34375 40.535156 31.839844 40.535156 31.839844 L 40.378906 32.03125 L 41.539062 33.003906 " fill-opacity="1" fill-rule="nonzero"/><path fill="#4a0b1e" d="M 32.597656 44.757812 C 32.523438 44.847656 32.394531 44.859375 32.308594 44.785156 L 30.71875 43.460938 C 30.628906 43.386719 30.617188 43.253906 30.691406 43.167969 C 30.761719 43.078125 30.890625 43.066406 30.980469 43.136719 L 32.570312 44.464844 C 32.65625 44.539062 32.667969 44.667969 32.597656 44.757812 " fill-opacity="1" fill-rule="nonzero"/><path fill="#4a0b1e" d="M 31.328125 46.316406 C 31.253906 46.40625 31.125 46.417969 31.035156 46.34375 L 29.445312 45.019531 C 29.359375 44.945312 29.347656 44.816406 29.417969 44.726562 C 29.492188 44.636719 29.621094 44.625 29.710938 44.699219 L 31.300781 46.023438 C 31.386719 46.097656 31.398438 46.226562 31.328125 46.316406 " fill-opacity="1" fill-rule="nonzero"/><path fill="#4a0b1e" d="M 29.691406 48.296875 C 29.605469 48.375 29.476562 48.367188 29.402344 48.277344 L 28.042969 46.710938 C 27.96875 46.625 27.976562 46.492188 28.0625 46.417969 C 28.148438 46.339844 28.277344 46.347656 28.355469 46.4375 L 29.710938 48.003906 C 29.785156 48.089844 29.777344 48.222656 29.691406 48.296875 " fill-opacity="1" fill-rule="nonzero"/><path fill="#4a0b1e" d="M 30.078125 50.398438 C 29.980469 50.519531 29.804688 50.539062 29.6875 50.4375 C 29.566406 50.339844 29.550781 50.160156 29.648438 50.039062 C 29.746094 49.917969 29.921875 49.902344 30.042969 50.003906 C 30.160156 50.101562 30.175781 50.28125 30.078125 50.398438 " fill-opacity="1" fill-rule="nonzero"/><path fill="#4a0b1e" d="M 30.257812 51.511719 C 30.160156 51.632812 29.984375 51.652344 29.867188 51.550781 C 29.746094 51.453125 29.730469 51.273438 29.828125 51.152344 C 29.925781 51.035156 30.101562 51.015625 30.222656 51.117188 C 30.339844 51.214844 30.359375 51.394531 30.257812 51.511719 " fill-opacity="1" fill-rule="nonzero"/><path fill="#4a0b1e" d="M 41.1875 30.492188 C 41.101562 30.546875 41.082031 30.664062 41.136719 30.75 C 41.195312 30.835938 41.308594 30.855469 41.394531 30.800781 L 43.867188 29.101562 C 43.949219 29.046875 43.972656 28.929688 43.914062 28.84375 C 43.859375 28.757812 43.746094 28.738281 43.660156 28.796875 L 41.1875 30.492188 " fill-opacity="1" fill-rule="nonzero"/><path fill="#e66f64" d="M 30.851562 30.0625 C 30.851562 30.0625 30.792969 30.738281 30.851562 31.589844 L 32.296875 32.152344 L 30.875 34.09375 L 26.632812 31.90625 L 28.375 31.214844 L 28.582031 29.519531 L 30.851562 30.0625 " fill-opacity="1" fill-rule="nonzero"/><path fill="#f68c82" d="M 33.199219 26.085938 C 33.488281 26.597656 33.714844 27.289062 33.203125 28.792969 C 32.917969 29.632812 32.796875 29.917969 32.34375 30.382812 C 32.167969 30.566406 31.238281 31.625 31.078125 31.625 C 30.925781 31.628906 28.800781 30.679688 28.597656 29.503906 C 28.597656 29.503906 28.03125 26.574219 29.191406 25.574219 C 30.414062 24.515625 32.59375 25.023438 33.199219 26.085938 " fill-opacity="1" fill-rule="nonzero"/><path fill="#f68c82" d="M 33.472656 27.730469 C 33.207031 29.363281 31.679688 30.472656 30.0625 30.203125 C 28.449219 29.933594 27.355469 28.390625 27.621094 26.753906 C 27.886719 25.121094 29.414062 24.011719 31.027344 24.28125 C 32.644531 24.550781 33.738281 26.09375 33.472656 27.730469 " fill-opacity="1" fill-rule="nonzero"/><path fill="#f68c82" d="M 28.625 29.625 C 28.625 29.625 27.828125 29.171875 27.902344 28.242188 C 28.054688 26.394531 28.703125 28.582031 28.703125 28.582031 C 28.703125 28.582031 28.828125 28.972656 28.625 29.625 " fill-opacity="1" fill-rule="nonzero"/><g clip-path="url(#65da7ef31e)"><path fill="#2e3192" d="M 25.964844 31.917969 L 22.515625 33.179688 L 22.515625 40.992188 L 24.320312 37.582031 L 24.070312 37.148438 L 25.964844 31.917969 " fill-opacity="1" fill-rule="nonzero"/></g><path fill="#f68c82" d="M 26.371094 46.980469 L 27.847656 46.910156 L 28.707031 47.226562 L 29.175781 47.214844 L 28.90625 47.527344 L 28.566406 47.574219 L 28.996094 47.820312 L 30.089844 47.480469 L 30.484375 47.613281 L 29.847656 48.070312 L 29.839844 48.316406 L 28.996094 49 L 28.804688 49.335938 L 27.398438 49.695312 L 25.464844 48.007812 L 26.371094 46.980469 " fill-opacity="1" fill-rule="nonzero"/><g clip-path="url(#c8327a86cd)"><path fill="#2e3192" d="M 22.515625 42.433594 L 22.515625 45.789062 L 25.835938 48.460938 L 27.132812 46.59375 L 22.515625 42.433594 " fill-opacity="1" fill-rule="nonzero"/></g><path fill="#24265d" d="M 38.03125 40.875 L 38.964844 41.734375 L 41.179688 40.742188 L 41.582031 35.429688 L 40.660156 34.828125 L 39.339844 35.988281 C 39.339844 35.988281 39.335938 38.4375 38.03125 40.875 " fill-opacity="1" fill-rule="nonzero"/><path fill="#f68c82" d="M 38.550781 34.480469 C 38.550781 34.480469 38.722656 34.273438 38.855469 34.242188 C 38.988281 34.210938 40.183594 34.09375 40.183594 34.09375 C 40.183594 34.09375 40.800781 34.335938 40.972656 34.457031 C 41.148438 34.578125 41.359375 35.121094 41.335938 35.195312 C 41.214844 35.582031 40.589844 36.257812 40.359375 36.359375 C 40.128906 36.460938 39.292969 36.390625 39.070312 36.328125 C 39.070312 36.328125 39.042969 36.242188 39.050781 36.179688 C 39.058594 36.113281 38.089844 35.832031 38.082031 35.707031 C 38.078125 35.589844 38.109375 35.589844 38.339844 35.472656 C 38.351562 35.46875 38.359375 35.460938 38.371094 35.457031 C 38.371094 35.457031 38.246094 35.300781 38.320312 35.101562 L 38.992188 34.792969 L 38.746094 34.679688 C 38.746094 34.679688 38.53125 34.6875 38.550781 34.480469 " fill-opacity="1" fill-rule="nonzero"/><path fill="#2e3192" d="M 32.765625 27.105469 C 32.765625 27.105469 33.441406 27.386719 33.042969 28.585938 C 33.042969 28.585938 32.773438 29.285156 33.410156 29.519531 C 33.410156 29.519531 33.097656 28.960938 33.40625 28.65625 C 33.714844 28.347656 34.222656 27.339844 33.40625 26.972656 C 32.59375 26.605469 32.816406 26.941406 32.765625 27.105469 " fill-opacity="1" fill-rule="nonzero"/><path fill="#24265d" d="M 35.460938 25.753906 C 35.839844 27.179688 33.761719 29.097656 31.425781 29.628906 C 29.5 30.070312 25.792969 29.539062 25.417969 28.113281 C 24.765625 25.625 27.695312 26.476562 30.523438 25.820312 C 33.347656 25.167969 34.960938 23.898438 35.460938 25.753906 " fill-opacity="1" fill-rule="nonzero"/><g clip-path="url(#496dbefaf3)"><path fill="#2e3192" d="M 27.359375 27.550781 C 27.359375 27.550781 27.234375 25.183594 27.464844 24.488281 C 27.839844 23.363281 28.976562 24.28125 30 23.628906 C 30.914062 23.042969 32.328125 23.203125 32.570312 23.890625 C 32.929688 24.914062 33.222656 26.09375 33.304688 26.746094 C 33.390625 27.425781 29.480469 29.488281 27.359375 27.550781 " fill-opacity="1" fill-rule="nonzero"/></g><path fill="#ffffff" d="M 27.671875 27.527344 C 27.671875 27.640625 27.578125 27.734375 27.464844 27.734375 C 27.351562 27.734375 27.257812 27.640625 27.257812 27.527344 C 27.257812 27.410156 27.351562 27.316406 27.464844 27.316406 C 27.578125 27.316406 27.671875 27.410156 27.671875 27.527344 " fill-opacity="1" fill-rule="nonzero"/><path fill="#ffffff" d="M 29.058594 28.164062 C 29.058594 28.277344 28.964844 28.375 28.851562 28.375 C 28.738281 28.375 28.644531 28.277344 28.644531 28.164062 C 28.644531 28.046875 28.738281 27.953125 28.851562 27.953125 C 28.964844 27.953125 29.058594 28.046875 29.058594 28.164062 " fill-opacity="1" fill-rule="nonzero"/><path fill="#ffffff" d="M 30.921875 28.164062 C 30.921875 28.277344 30.828125 28.375 30.714844 28.375 C 30.601562 28.375 30.507812 28.277344 30.507812 28.164062 C 30.507812 28.046875 30.601562 27.953125 30.714844 27.953125 C 30.828125 27.953125 30.921875 28.046875 30.921875 28.164062 " fill-opacity="1" fill-rule="nonzero"/><path fill="#ffffff" d="M 32.503906 27.59375 C 32.503906 27.707031 32.410156 27.800781 32.296875 27.800781 C 32.183594 27.800781 32.089844 27.707031 32.089844 27.59375 C 32.089844 27.476562 32.183594 27.382812 32.296875 27.382812 C 32.410156 27.382812 32.503906 27.476562 32.503906 27.59375 " fill-opacity="1" fill-rule="nonzero"/><path fill="#ffffff" d="M 33.40625 26.871094 C 33.40625 26.988281 33.3125 27.082031 33.199219 27.082031 C 33.085938 27.082031 32.992188 26.988281 32.992188 26.871094 C 32.992188 26.753906 33.085938 26.660156 33.199219 26.660156 C 33.3125 26.660156 33.40625 26.753906 33.40625 26.871094 " fill-opacity="1" fill-rule="nonzero"/></svg>